<svg width="76" height="58" viewBox="0 0 76 58" fill="none" xmlns="http://www.w3.org/2000/svg">
<g clip-path="url(#clip0_1275_1222)">
<path d="M61.6877 47.1386H33.1832C23.3079 47.1386 15.2774 39.0473 15.2774 29.0971C15.2774 19.1591 23.3079 11.0678 33.1832 11.0678C42.5882 11.0678 50.2569 18.248 51.0166 27.5785C50.8357 27.785 50.6548 28.0037 50.474 28.2224C50.4498 28.2588 50.4257 28.2953 50.3896 28.3317C50.2328 28.5261 50.0881 28.7327 49.9434 28.9392C49.8831 29.0242 49.8349 29.1093 49.7746 29.1822C49.6661 29.3523 49.5576 29.5102 49.4611 29.6803C49.4008 29.7775 49.3526 29.8747 49.2923 29.9719C49.1958 30.1298 49.1114 30.2999 49.015 30.47C48.9668 30.5672 48.9065 30.6644 48.8582 30.7737C48.7738 30.9438 48.6894 31.1139 48.6171 31.2961C48.5688 31.3933 48.5327 31.4905 48.4844 31.5877C48.4 31.7821 48.3277 31.9765 48.2553 32.1709C48.2312 32.2559 48.195 32.3288 48.1589 32.4138C48.0624 32.6933 47.966 32.9727 47.8936 33.2643C47.5439 34.5399 47.3631 35.8521 47.3631 37.1763C47.3631 38.4034 48.3518 39.3996 49.5696 39.3996C50.7875 39.3996 51.7762 38.4034 51.7762 37.1763C51.7762 36.2651 51.8968 35.3539 52.15 34.4671C52.6202 32.7905 53.5366 31.2475 54.7906 30.0083C56.6475 28.1981 59.0953 27.214 61.6636 27.214C67.1137 27.214 71.5509 31.6849 71.5509 37.1763C71.5871 42.6677 67.1498 47.1265 61.6877 47.1386ZM61.6877 22.7553C59.3244 22.7553 57.0454 23.3384 55.0077 24.4197C54.1034 20.0825 51.933 16.0976 48.7135 12.9388C44.5295 8.85666 39.0191 6.59692 33.1832 6.59692C20.8722 6.59692 10.8643 16.6807 10.8643 29.085C10.8643 41.4893 20.8722 51.573 33.1832 51.573H61.6997C69.5855 51.573 76.0123 45.1097 76.0123 37.152C76.0002 29.2186 69.5855 22.7553 61.6877 22.7553Z" fill="#444950"/>
<path d="M38.4767 0H40.1407C45.1929 0 49.2804 4.16716 49.2804 9.31839C49.2804 14.4696 45.1929 18.6368 40.1407 18.6368H38.4767C33.4245 18.6368 29.3369 14.4696 29.3369 9.31839C29.3369 4.1793 33.4245 0 38.4767 0Z" fill="#FCEDEA"/>
<path d="M39.3079 14.8219C42.3245 14.8219 44.77 12.3579 44.77 9.31838C44.77 6.27885 42.3245 3.81482 39.3079 3.81482C36.2912 3.81482 33.8457 6.27885 33.8457 9.31838C33.8457 12.3579 36.2912 14.8219 39.3079 14.8219Z" stroke="#444950" stroke-width="2.8346" stroke-miterlimit="10" stroke-linecap="round" stroke-linejoin="round"/>
<path d="M46.434 55.4244C44.7339 52.1441 41.84 44.6967 45.1559 42.9594L44.8906 39.1688C48.2065 37.4315 48.3512 31.9036 50.0514 35.1961C51.7515 38.4885 54.9468 47.7583 51.6309 49.4956L49.7137 51.7918C46.3858 53.4927 48.1221 58.7047 46.434 55.4244Z" fill="#EAF6F2"/>
<path d="M52.3429 33.0821C51.8727 32.1709 51.4386 33.0335 51.1733 32.0372C50.3413 32.5232 49.5214 33.0456 48.7497 33.6531L48.5929 33.7746C48.5688 33.7867 48.5327 33.8232 48.5085 33.8353C41.6115 39.3875 40.0681 49.2769 44.9636 56.5785C45.1083 56.7972 45.2771 57.0037 45.4338 57.2103L45.6147 57.4168C46.109 58.085 47.0737 58.2065 47.7248 57.6841C48.0021 57.4654 48.2794 57.2467 48.5447 57.0037C54.8027 51.4637 56.1893 42.2304 51.7882 35.2082C51.9329 35.0867 52.1741 33.1792 52.3429 33.0821ZM47.0616 54.2459C43.7698 48.718 44.7103 41.6108 49.3526 37.0913C52.6443 42.607 51.6918 49.7142 47.0616 54.2459Z" fill="#444950"/>
<path d="M29.3365 19.39H0V38.7922H29.3365V19.39Z" fill="white"/>
<path d="M9.87521 36.0344C6.04084 36.0344 2.99023 32.8877 2.99023 29.0972C2.99023 25.2338 6.11319 22.16 9.87521 22.16C12.0094 22.16 13.9146 23.0955 15.265 24.7357C15.7594 25.3796 15.687 26.2421 15.048 26.7403C14.4089 27.2384 13.5528 27.1655 13.0585 26.5216C12.2747 25.5253 11.1413 25.0151 9.86315 25.0151C7.5963 25.0151 5.82381 26.8739 5.82381 29.085C5.82381 31.2962 7.66864 33.155 9.86315 33.155C10.9242 33.155 11.9974 32.7298 12.6967 31.9401C13.2634 31.3691 14.1195 31.3691 14.6863 31.9401C15.253 32.5111 15.253 33.3737 14.6863 33.9447C13.4925 35.3176 11.72 36.0344 9.87521 36.0344Z" fill="#444950"/>
<path d="M23.2832 36.0344C19.5935 36.0344 16.6152 33.0335 16.6152 29.3159C16.6152 25.5982 19.5935 22.5974 23.2832 22.5974C26.9728 22.5974 29.9511 25.5982 29.9511 29.3159C29.9632 33.0335 26.9728 36.0344 23.2832 36.0344ZM23.2832 25.4525C21.1489 25.4525 19.4488 27.1655 19.4488 29.3159C19.4488 31.4663 21.1489 33.1793 23.2832 33.1793C25.4174 33.1793 27.1175 31.4663 27.1175 29.3159C27.1175 27.1655 25.4174 25.4525 23.2832 25.4525Z" fill="#444950"/>
<path d="M40.4659 36.0344H32.7972C32.0134 36.0344 31.3744 35.3905 31.3744 34.6008C31.3744 32.0251 33.9306 30.5308 36.1251 29.243C37.3309 28.5262 39.1757 27.4571 39.1757 26.8132C39.1757 25.744 37.6203 25.3796 36.6918 25.3796C35.8357 25.3796 34.2079 25.6711 34.2079 26.8861C34.2079 27.6758 33.5689 28.3197 32.7851 28.3197C32.0014 28.3197 31.3623 27.6758 31.3623 26.8861C31.4347 24.3833 33.6292 22.5974 36.7521 22.5974C39.8027 22.5974 42.0696 24.4562 42.0696 26.8861C42.0696 29.243 39.8027 30.5308 37.5962 31.8186C36.8124 32.2438 35.9684 32.7541 35.3293 33.2522H40.5141C41.2979 33.2522 41.937 33.8961 41.937 34.6858C41.8767 35.3905 41.2376 36.0344 40.4659 36.0344Z" fill="#444950"/>
</g>
<defs>
<clipPath id="clip0_1275_1222">
<rect width="76" height="58" fill="white"/>
</clipPath>
</defs>
</svg>
