<?xml version="1.0" encoding="UTF-8"?>
<svg id="uuid-5972d5b6-7f60-43a9-8245-69f3f54d99df" data-name="Capa 1" xmlns="http://www.w3.org/2000/svg" xmlns:xlink="http://www.w3.org/1999/xlink" viewBox="0 0 500.4 411.65">
  <defs>
    <style>
      .uuid-bb4d78e3-4565-4b58-ba17-7449cc36639a {
        mask: url(#uuid-15d8cd3a-e416-41ab-8752-62611b0f4f4a);
      }

      .uuid-bb4d78e3-4565-4b58-ba17-7449cc36639a, .uuid-47ece561-91d1-4d8a-ae90-a86a597a9b49, .uuid-edae53bc-f04a-47a0-bd41-0b891cb80b04, .uuid-077f1949-c811-43bc-b216-77d2582d544c, .uuid-bf18be31-3932-4c2f-b0be-925d13906372 {
        fill: none;
      }

      .uuid-e26223c1-77fb-4244-bce7-e88716940834, .uuid-4427236b-6ddc-41dc-a0a6-1005242793ec {
        fill: #fff;
      }

      .uuid-47ece561-91d1-4d8a-ae90-a86a597a9b49 {
        mask: url(#uuid-ae6e76b4-8a02-4103-bf04-4fd673e18b2b);
      }

      .uuid-4427236b-6ddc-41dc-a0a6-1005242793ec {
        fill-rule: evenodd;
      }

      .uuid-edae53bc-f04a-47a0-bd41-0b891cb80b04 {
        mask: url(#uuid-b45cc173-e89b-4ad7-a60a-d33244019dbc);
      }

      .uuid-fb8142db-34f3-4f53-8e19-6099bc3e8b31 {
        fill: #444950;
      }

      .uuid-077f1949-c811-43bc-b216-77d2582d544c {
        mask: url(#uuid-2bc61579-cf76-4bbe-9abd-903f295735fc);
      }

      .uuid-bf18be31-3932-4c2f-b0be-925d13906372 {
        stroke: #444950;
        stroke-width: .8px;
      }

      .uuid-40b76d7a-8f48-4c23-bacb-88f2603ccdbd {
        fill: #56cea4;
      }
    </style>
    <mask id="uuid-ae6e76b4-8a02-4103-bf04-4fd673e18b2b" data-name="mask" x="357.96" y="286.27" width="142.44" height="125.37" maskUnits="userSpaceOnUse">
      <g id="uuid-a31db02f-e497-4091-9c46-4dce4d44d980" data-name="path-1-inside-1 2767 9683">
        <path class="uuid-4427236b-6ddc-41dc-a0a6-1005242793ec" d="m446.62,316.35c-9.74-.14-20.63,6.14-21.67,16.08l-.61,5.83h14.5c.34-4.65,5.01-7.48,8.65-7.22,3.54.26,7.56,2.96,6.85,6.87-.1,4.88-4.63,7.78-8.33,10.12-6.81,4.07-14.8,7.62-18.65,14.96-3.34,6.4-3.13,11.87-3.04,18.56h46v-14.66h-26.46c6.33-5.05,14.39-7.85,19.57-14.35,5.74-7.01,7.76-17.82,2.77-25.78-4.08-6.65-11.9-10.45-19.58-10.42Z"/>
      </g>
    </mask>
    <mask id="uuid-15d8cd3a-e416-41ab-8752-62611b0f4f4a" data-name="mask-1" x="203.42" y="248.58" width="152.68" height="150.12" maskUnits="userSpaceOnUse">
      <g id="uuid-1dd177f4-87ef-4429-9808-10f860520087" data-name="path-3-inside-2 2767 9683">
        <path class="uuid-4427236b-6ddc-41dc-a0a6-1005242793ec" d="m284.39,279.28c-8.87-1.52-18.2-.27-26.59,4.01-16.82,8.59-26.35,27.15-23.93,46.13,2.4,19.01,16.38,34.51,34.82,38.32,18.44,3.81,37.17-5.1,46.48-21.75l-12.8-7.14c-6.31,11.3-18.57,17.02-30.7,14.5-12.14-2.49-21.58-12.74-23.23-25.72-1.64-13,4.89-25.57,16.05-31.24,11.15-5.7,24.4-3.5,33.27,5.67l10.51-10.18c-6.61-6.8-15.01-11.09-23.87-12.6Z"/>
      </g>
    </mask>
    <mask id="uuid-b45cc173-e89b-4ad7-a60a-d33244019dbc" data-name="mask-2" x="296.37" y="248.54" width="147.61" height="150.16" maskUnits="userSpaceOnUse">
      <g id="uuid-f779a5af-c2c5-44f2-ad4c-b231205f4b02" data-name="path-5-inside-3 2767 9683">
        <path class="uuid-4427236b-6ddc-41dc-a0a6-1005242793ec" d="m370.12,293.27c16,0,29.04,13.37,29.04,30.34s-13.04,30.32-29.04,30.32-29.01-13.35-29.01-30.32,13.04-30.34,29.01-30.34Zm0-14.65c-24.2,0-43.68,20.38-43.68,44.99s19.48,45.02,43.68,45.02,43.78-20.38,43.78-45.02-19.55-44.99-43.78-44.99Z"/>
      </g>
    </mask>
    <mask id="uuid-2bc61579-cf76-4bbe-9abd-903f295735fc" data-name="mask-3" x="-7.12" y="-7.12" width="308.29" height="421.08" maskUnits="userSpaceOnUse">
      <g id="uuid-e49e920e-7d48-4402-ba4b-183a05189d57" data-name="path-8-outside-4 2767 9683">
        <rect class="uuid-e26223c1-77fb-4244-bce7-e88716940834" x="-7.12" y="-7.12" width="308.29" height="421.08"/>
        <path d="m285.56,141.41l-.07-.12c-5.31-8.39-12.71-15.01-21.55-19.3,6.24-7.72,10.11-16.98,11.25-26.97,1.59-14-2.43-27.78-11.3-38.79-15.55-19.29-42.11-25.23-64.35-14.84-2.52-10.88-8.52-20.78-17.15-28.15C172.72,4.96,160.35.4,147.58.4c-24.96,0-46.2,16.83-51.87,40.51-10.16-4.84-21.72-6.37-32.94-4.29-12.58,2.33-23.89,9.05-31.86,18.93-8.87,11.01-12.89,24.77-11.3,38.78,1.11,9.82,4.88,18.94,10.94,26.59-9.03,4.28-16.59,10.97-22,19.52-7.55,11.92-9.96,26.04-6.8,39.75,2.83,12.26,10,23.15,20.2,30.64,9.1,6.69,20.07,10.31,31.25,10.38-2.24,9.63-1.67,19.61,1.67,29.08,4.7,13.32,14.36,24.01,27.2,30.13,18.96,9.03,41.2,6.13,57.19-6.98v117.61h-20.72c-4.27,0-7.75,3.45-7.75,7.69s3.48,7.69,7.75,7.69h56.95c4.27,0,7.75-3.45,7.75-7.69s-3.48-7.69-7.75-7.69h-20.72v-117.29c9.54,7.79,21.59,12.16,33.9,12.16,7.91,0,15.54-1.73,22.68-5.13,12.85-6.12,22.51-16.82,27.2-30.14,3.28-9.31,3.89-19.13,1.78-28.61h0c24.46,0,46.41-17.07,51.94-41.01,3.17-13.68.78-27.74-6.73-39.64Zm-62.82,66.6c-1.9,2.35-2.25,5.62-.87,8.29.04.06.32.56.47.84,4.35,8.96,4.91,19.06,1.61,28.44-3.33,9.44-10.17,17.02-19.28,21.36-18.52,8.82-40.3,1.22-49.87-17.29v-39.97c22.15-2.27,41.81-13.95,54.22-32.32,2.38-3.52,1.42-8.31-2.13-10.67-3.55-2.36-8.38-1.41-10.76,2.11-9.5,14.08-24.44,23.24-41.33,25.43v-51.7c13.86-2.14,26.15-9.87,34-21.5,2.38-3.52,1.42-8.31-2.13-10.67s-8.38-1.41-10.76,2.11c-4.95,7.33-12.53,12.48-21.12,14.43v-32.89c0-4.24-3.48-7.69-7.75-7.69s-7.75,3.45-7.75,7.69v32.89c-8.58-1.95-16.16-7.09-21.12-14.43-1.15-1.71-2.91-2.86-4.94-3.26-2.04-.4-4.1,0-5.82,1.15-1.72,1.15-2.89,2.88-3.3,4.9-.41,2.01,0,4.06,1.16,5.77,7.85,11.62,20.14,19.36,34,21.5v51.69c-16.89-2.2-31.83-11.35-41.33-25.44-2.39-3.51-7.22-4.45-10.76-2.1-1.72,1.15-2.89,2.88-3.29,4.9-.41,2.01,0,4.07,1.16,5.77,12.4,18.37,32.05,30.06,54.22,32.33v39.71c-9.31,18.34-31.82,26.05-50.48,17.18-9.11-4.34-15.95-11.92-19.28-21.35-3.36-9.53-2.73-19.51,1.85-28.9l.14-.27c.08-.15.16-.3.22-.39,1.42-2.67,1.12-5.93-.77-8.32-1.88-2.38-5-3.44-7.94-2.72-.08.02-.67.19-.96.27-20.3,4.52-40.56-8.09-45.18-28.13-2.25-9.7-.53-19.69,4.81-28.13,5.45-8.59,13.74-14.35,24-16.66.25-.05.82-.13.83-.13,2.98-.58,5.37-2.85,6.06-5.79.69-2.93-.41-6.02-2.85-7.87-.06-.05-.55-.39-.78-.55-7.85-6.22-12.79-15.1-13.92-24.99-1.13-9.91,1.71-19.65,8.01-27.45,12.98-16.11,36.93-18.64,53.43-5.65.07.06.16.14.26.22l.36.32c2.34,1.96,5.62,2.37,8.37,1.05,2.74-1.31,4.46-4.11,4.38-7.17,0-.08-.04-.59-.05-.88.05-20.57,16.98-37.29,37.79-37.29s37.75,16.72,37.79,37.3l-.05.8c0,.15-.02.3-.02.4-.13,3.02,1.56,5.84,4.26,7.18,2.72,1.37,6.02,1.01,8.43-.96.06-.05.5-.43.71-.62,16.3-12.8,40.09-10.13,53.07,5.96,6.28,7.8,9.13,17.55,8.01,27.47-1.14,10.05-6.1,18.78-14.32,25.26l-.68.47c-2.42,1.8-3.58,4.86-2.93,7.79.64,2.93,2.97,5.24,5.92,5.89l1.05.18c9.83,2.24,18.19,8.12,23.54,16.58,5.26,8.29,7,18.09,4.91,27.65l-.11.47c-4.63,20.07-24.87,32.68-45.16,28.14l-.42-.12c-.23-.06-.67-.19-.86-.24-2.95-.78-6.09.26-8,2.6Z"/>
      </g>
    </mask>
  </defs>
  <g class="uuid-47ece561-91d1-4d8a-ae90-a86a597a9b49">
    <path class="uuid-fb8142db-34f3-4f53-8e19-6099bc3e8b31" d="m446.62,316.35l-.42,30.07h.27s.27,0,.27,0l-.12-30.08Zm-21.67,16.08l29.91,3.15v-.02s-29.91-3.13-29.91-3.13Zm-.61,5.83l-29.91-3.15-3.49,33.22h33.41v-30.08Zm14.5,0v30.08h27.94l2.06-27.86-30-2.21Zm8.65-7.22l2.21-30h-.06s-2.14,30-2.14,30Zm6.85,6.87l-29.6-5.35-.42,2.34-.05,2.37,30.07.64Zm-8.33,10.12l15.42,25.83.33-.2.32-.2-16.07-25.42Zm-18.65,14.96l-26.64-13.96-.02.04,26.66,13.92Zm-3.04,18.56l-30.07.42.42,29.66h29.66v-30.08Zm46,0v30.08h30.08v-30.08h-30.08Zm0-14.66h30.08v-30.08h-30.08v30.08Zm-26.46,0l-18.76-23.51-67.15,53.59h85.91v-30.08Zm19.57-14.35l-23.27-19.06-.13.16-.13.16,23.52,18.74Zm2.77-25.78l-25.64,15.73.08.13.08.13,25.48-15.99Zm-19.16-40.49c-11.02-.15-22.29,3.19-31.54,9.54-9.41,6.46-18.81,17.67-20.47,33.49l59.83,6.26c-.61,5.87-4.05,8.98-5.32,9.85-1.11.76-2.06,1.03-3.34,1.02l.83-60.15Zm-52,43.01l-.61,5.83,59.82,6.29.61-5.83-59.82-6.29Zm29.3,39.06h14.5v-60.15h-14.5v60.15Zm44.49-27.86c-.58,7.85-4.87,13.39-8.8,16.35-3.5,2.64-8.5,4.66-14.69,4.22l4.29-60c-9.83-.7-18.98,2.6-25.81,7.75-7.25,5.47-14.05,14.75-14.98,27.25l59.99,4.43Zm-23.55,20.56c-4.28-.32-8.73-1.9-12.65-5.35-4.51-3.97-9.85-12.28-7.89-23.12l59.19,10.71c2.67-14.75-4.33-26.37-11.56-32.73-6.64-5.85-14.87-8.92-22.69-9.49l-4.41,59.99Zm-21.01-23.76c.17-7.75,4.12-12.72,5.85-14.48.8-.82,1.35-1.19,1.23-1.1-.15.11-.43.29-1.41.92l32.14,50.85c1.38-.87,6.43-3.92,10.85-8.4,4.95-5.01,11.21-13.87,11.48-26.5l-60.14-1.28Zm6.32-15.07c-1.1.65-7.82,4.35-12.19,7.39-5.41,3.76-12.64,9.82-17.68,19.44l53.28,27.92c-1.19,2.28-2.51,2.89-1.26,2.02.62-.43,1.52-.99,3.05-1.88.79-.46,1.51-.86,2.51-1.43.92-.52,2-1.14,3.11-1.81l-30.83-51.65Zm-29.89,26.87c-7.36,14.09-6.53,27.13-6.45,32.9l60.15-.84c-.03-1.92-.05-2.98-.03-4.03.01-.93.05-1.32.06-1.43,0-.06-.02.15-.12.5-.11.36-.23.62-.28.73l-53.33-27.83Zm23.63,62.56h46v-60.15h-46v60.15Zm76.07-30.08v-14.66h-60.15v14.66h60.15Zm-30.08-44.74h-26.46v60.15h26.46v-60.15Zm-7.7,53.59c1.31-1.05,1.93-1.24,7.32-4.59,4.12-2.56,11.09-7.09,17.02-14.53l-47.05-37.49c.75-.94,1.1-.82-1.69.91-.65.41-1.34.82-2.25,1.37-.85.51-1.91,1.15-2.99,1.82-2.16,1.35-4.97,3.17-7.87,5.49l37.52,47.02Zm24.08-18.8c11.73-14.32,18.51-39.25,4.97-60.82l-50.95,31.97c-1.84-2.94-1.85-5.54-1.71-6.64.13-.99.46-1.79,1.15-2.62l46.54,38.11Zm5.13-60.56c-10.26-16.72-28.54-24.84-45.34-24.77l.24,60.15c-1.06,0-1.98-.23-2.84-.68-.89-.46-2.22-1.43-3.34-3.25l51.27-31.45Z"/>
  </g>
  <g class="uuid-bb4d78e3-4565-4b58-ba17-7449cc36639a">
    <path class="uuid-fb8142db-34f3-4f53-8e19-6099bc3e8b31" d="m284.39,279.28l5.08-29.64h0s-5.07,29.64-5.07,29.64Zm-26.59,4.01l-13.68-26.79h0s13.68,26.79,13.68,26.79Zm-23.93,46.13l29.84-3.77v-.04s-29.84,3.81-29.84,3.81Zm34.82,38.32l-6.1,29.45h.02s6.08-29.45,6.08-29.45Zm46.48-21.75l26.25,14.68,14.69-26.27-26.28-14.67-14.66,26.26Zm-12.8-7.14l14.66-26.26-26.26-14.65-14.66,26.25,26.26,14.66Zm-30.7,14.5l6.14-29.44-.1-.02-6.03,29.47Zm-23.23-25.72l-29.84,3.77v.03s29.84-3.8,29.84-3.8Zm16.05-31.24l13.62,26.82.07-.04-13.69-26.78Zm33.27,5.67l-21.62,20.91,20.92,21.63,21.62-20.94-20.92-21.61Zm10.51-10.18l20.92,21.61,21.65-20.97-21.01-21.61-21.56,20.97Zm-18.79-42.25c-15.02-2.57-30.95-.47-45.34,6.87l27.35,53.58c2.4-1.22,5.12-1.62,7.84-1.16l10.15-59.29Zm-45.35,6.88c-28.48,14.55-44.06,45.57-40.08,76.73l59.67-7.62c-.87-6.81,2.62-12.91,7.78-15.54l-27.36-53.57Zm-40.09,76.69c3.95,31.29,27.07,57.49,58.56,64l12.19-58.91c-5.38-1.11-10.22-5.91-11.07-12.64l-59.68,7.54Zm58.58,64.01c31.8,6.56,63.36-8.89,78.81-36.52l-52.51-29.35c-3.17,5.66-9.06,8.01-14.14,6.97l-12.16,58.91Zm67.21-77.47l-12.8-7.14-29.32,52.53,12.8,7.14,29.31-52.53Zm-53.72,4.46c-.14.25-.12.07.28-.12.18-.09.42-.16.69-.19.28-.03.53-.02.73.02l-12.27,58.89c25.56,5.33,50.66-7.01,63.1-29.28l-52.52-29.33Zm1.6-.31c.21.04.38.12.5.19.12.07.17.12.18.13.03.03-.07-.06-.11-.37l-59.67,7.6c3.22,25.23,21.79,46.21,47.03,51.38l12.07-58.93Zm.57-.02c-.05-.37.03-.65.12-.82.09-.17.07-.01-.29.17l-27.24-53.63c-22.99,11.68-35.43,36.81-32.27,61.83l59.68-7.54Zm-.1-.69c-.2.1-.66.23-1.22.13-.56-.09-.83-.34-.83-.34l43.24-41.82c-17.98-18.59-45.53-23.32-68.58-11.54l27.38,53.56Zm40.5.49l10.51-10.18-41.85-43.21-10.51,10.18,41.85,43.21Zm11.15-52.76c-11.12-11.43-25.31-18.7-40.35-21.28l-10.16,59.29c2.68.46,5.27,1.76,7.38,3.93l43.13-41.94Z"/>
  </g>
  <g class="uuid-edae53bc-f04a-47a0-bd41-0b891cb80b04">
    <path class="uuid-fb8142db-34f3-4f53-8e19-6099bc3e8b31" d="m341.11,323.6h-30.08,30.08Zm29.01-.26c-.23,0-.51-.06-.76-.16-.23-.1-.34-.21-.38-.24-.04-.04-.01-.03.02.05.03.07.09.25.09.61h60.15c0-32.49-25.44-60.41-59.12-60.41v60.15Zm-1.03.26c0,.37-.07.56-.09.62-.03.08-.05.08,0,.04.04-.04.16-.15.39-.25.25-.11.52-.16.74-.16v60.15c33.65,0,59.12-27.86,59.12-60.4h-60.15Zm1.03.25c.24,0,.52.06.78.17.23.1.35.21.39.25.04.04.02.03-.01-.05-.03-.07-.09-.25-.09-.62h-60.15c0,32.5,25.44,60.4,59.09,60.4v-60.15Zm1.06-.25c0-.36.06-.54.09-.61.03-.09.06-.1.02-.06-.03.04-.15.14-.38.24-.26.11-.55.17-.8.17v-60.15c-33.67,0-59.09,27.96-59.09,60.41h60.15Zm-1.06-75.07c-41.78,0-73.76,34.83-73.76,75.07h60.15c0-8.98,6.98-14.91,13.6-14.91v-60.15Zm-73.76,75.07c0,40.25,31.96,75.1,73.76,75.1v-60.15c-6.61,0-13.6-5.92-13.6-14.94h-60.15Zm73.76,75.1c41.75,0,73.86-34.77,73.86-75.1h-60.15c0,8.94-6.99,14.94-13.7,14.94v60.15Zm73.86-75.1c0-40.3-32.12-75.07-73.86-75.07v60.15c6.72,0,13.7,6.02,13.7,14.91h60.15Z"/>
  </g>
  <path class="uuid-40b76d7a-8f48-4c23-bacb-88f2603ccdbd" d="m229.74,244.78c0,21.05-40.1,31.33-60.15,33.84l-22.56-18.8c-10.03,6.27-36.85,17.29-63.91,11.28-27.07-6.02-28.82-42.61-26.32-60.15-13.79-5.01-42.86-19.55-48.88-37.6-6.02-18.05,17.55-40.1,30.08-48.88-5.01-11.28-12.78-38.35-3.76-56.39,9.02-18.05,46.37-22.56,63.91-22.56,6.27-10.03,24.81-31.58,48.88-37.6,24.06-6.02,40.1,22.56,45.12,37.6h22.56c13.79,1.25,42.86,9.02,48.88,30.08,6.02,21.05-2.51,43.86-7.52,52.64l22.56,11.28c1.25,6.27,3.01,24.06,0,45.12-3.76,26.32-48.88,33.84-48.88,60.15Z"/>
  <path class="uuid-fb8142db-34f3-4f53-8e19-6099bc3e8b31" d="m285.56,141.41l-.07-.12c-5.31-8.39-12.71-15.01-21.55-19.3,6.24-7.72,10.11-16.98,11.25-26.97,1.59-14-2.43-27.78-11.3-38.79-15.55-19.29-42.11-25.23-64.35-14.84-2.52-10.88-8.52-20.78-17.15-28.15C172.72,4.96,160.35.4,147.58.4c-24.96,0-46.2,16.83-51.87,40.51-10.16-4.84-21.72-6.37-32.94-4.29-12.58,2.33-23.89,9.05-31.86,18.93-8.87,11.01-12.89,24.77-11.3,38.78,1.11,9.82,4.88,18.94,10.94,26.59-9.03,4.28-16.59,10.97-22,19.52-7.55,11.92-9.96,26.04-6.8,39.75,2.83,12.26,10,23.15,20.2,30.64,9.1,6.69,20.07,10.31,31.25,10.38-2.24,9.63-1.67,19.61,1.67,29.08,4.7,13.32,14.36,24.01,27.2,30.13,18.96,9.03,41.2,6.13,57.19-6.98v117.61h-20.72c-4.27,0-7.75,3.45-7.75,7.69s3.48,7.69,7.75,7.69h56.95c4.27,0,7.75-3.45,7.75-7.69s-3.48-7.69-7.75-7.69h-20.72v-117.29c9.54,7.79,21.59,12.16,33.9,12.16,7.91,0,15.54-1.73,22.68-5.13,12.85-6.12,22.51-16.82,27.2-30.14,3.28-9.31,3.89-19.13,1.78-28.61h0c24.46,0,46.41-17.07,51.94-41.01,3.17-13.68.78-27.74-6.73-39.64Zm-62.82,66.6c-1.9,2.35-2.25,5.62-.87,8.29.04.06.32.56.47.84,4.35,8.96,4.91,19.06,1.61,28.44-3.33,9.44-10.17,17.02-19.28,21.36-18.52,8.82-40.3,1.22-49.87-17.29v-39.97c22.15-2.27,41.81-13.95,54.22-32.32,2.38-3.52,1.42-8.31-2.13-10.67-3.55-2.36-8.38-1.41-10.76,2.11-9.5,14.08-24.44,23.24-41.33,25.43v-51.7c13.86-2.14,26.15-9.87,34-21.5,2.38-3.52,1.42-8.31-2.13-10.67s-8.38-1.41-10.76,2.11c-4.95,7.33-12.53,12.48-21.12,14.43v-32.89c0-4.24-3.48-7.69-7.75-7.69s-7.75,3.45-7.75,7.69v32.89c-8.58-1.95-16.16-7.09-21.12-14.43-1.15-1.71-2.91-2.86-4.94-3.26-2.04-.4-4.1,0-5.82,1.15-1.72,1.15-2.89,2.88-3.3,4.9-.41,2.01,0,4.06,1.16,5.77,7.85,11.62,20.14,19.36,34,21.5v51.69c-16.89-2.2-31.83-11.35-41.33-25.44-2.39-3.51-7.22-4.45-10.76-2.1-1.72,1.15-2.89,2.88-3.29,4.9-.41,2.01,0,4.07,1.16,5.77,12.4,18.37,32.05,30.06,54.22,32.33v39.71c-9.31,18.34-31.82,26.05-50.48,17.18-9.11-4.34-15.95-11.92-19.28-21.35-3.36-9.53-2.73-19.51,1.85-28.9l.14-.27c.08-.15.16-.3.22-.39,1.42-2.67,1.12-5.93-.77-8.32-1.88-2.38-5-3.44-7.94-2.72-.08.02-.67.19-.96.27-20.3,4.52-40.56-8.09-45.18-28.13-2.25-9.7-.53-19.69,4.81-28.13,5.45-8.59,13.74-14.35,24-16.66.25-.05.82-.13.83-.13,2.98-.58,5.37-2.85,6.06-5.79.69-2.93-.41-6.02-2.85-7.87-.06-.05-.55-.39-.78-.55-7.85-6.22-12.79-15.1-13.92-24.99-1.13-9.91,1.71-19.65,8.01-27.45,12.98-16.11,36.93-18.64,53.43-5.65.07.06.16.14.26.22l.36.32c2.34,1.96,5.62,2.37,8.37,1.05,2.74-1.31,4.46-4.11,4.38-7.17,0-.08-.04-.59-.05-.88.05-20.57,16.98-37.29,37.79-37.29s37.75,16.72,37.79,37.3l-.05.8c0,.15-.02.3-.02.4-.13,3.02,1.56,5.84,4.26,7.18,2.72,1.37,6.02,1.01,8.43-.96.06-.05.5-.43.71-.62,16.3-12.8,40.09-10.13,53.07,5.96,6.28,7.8,9.13,17.55,8.01,27.47-1.14,10.05-6.1,18.78-14.32,25.26l-.68.47c-2.42,1.8-3.58,4.86-2.93,7.79.64,2.93,2.97,5.24,5.92,5.89l1.05.18c9.83,2.24,18.19,8.12,23.54,16.58,5.26,8.29,7,18.09,4.91,27.65l-.11.47c-4.63,20.07-24.87,32.68-45.16,28.14l-.42-.12c-.23-.06-.67-.19-.86-.24-2.95-.78-6.09.26-8,2.6Z"/>
  <g class="uuid-077f1949-c811-43bc-b216-77d2582d544c">
    <path class="uuid-bf18be31-3932-4c2f-b0be-925d13906372" d="m285.56,141.41l-.07-.12c-5.31-8.39-12.71-15.01-21.55-19.3,6.24-7.72,10.11-16.98,11.25-26.97,1.59-14-2.43-27.78-11.3-38.79-15.55-19.29-42.11-25.23-64.35-14.84-2.52-10.88-8.52-20.78-17.15-28.15C172.72,4.96,160.35.4,147.58.4c-24.96,0-46.2,16.83-51.87,40.51-10.16-4.84-21.72-6.37-32.94-4.29-12.58,2.33-23.89,9.05-31.86,18.93-8.87,11.01-12.89,24.77-11.3,38.78,1.11,9.82,4.88,18.94,10.94,26.59-9.03,4.28-16.59,10.97-22,19.52-7.55,11.92-9.96,26.04-6.8,39.75,2.83,12.26,10,23.15,20.2,30.64,9.1,6.69,20.07,10.31,31.25,10.38-2.24,9.63-1.67,19.61,1.67,29.08,4.7,13.32,14.36,24.01,27.2,30.13,18.96,9.03,41.2,6.13,57.19-6.98v117.61h-20.72c-4.27,0-7.75,3.45-7.75,7.69s3.48,7.69,7.75,7.69h56.95c4.27,0,7.75-3.45,7.75-7.69s-3.48-7.69-7.75-7.69h-20.72v-117.29c9.54,7.79,21.59,12.16,33.9,12.16,7.91,0,15.54-1.73,22.68-5.13,12.85-6.12,22.51-16.82,27.2-30.14,3.28-9.31,3.89-19.13,1.78-28.61h0c24.46,0,46.41-17.07,51.94-41.01,3.17-13.68.78-27.74-6.73-39.64Zm-62.82,66.6c-1.9,2.35-2.25,5.62-.87,8.29.04.06.32.56.47.84,4.35,8.96,4.91,19.06,1.61,28.44-3.33,9.44-10.17,17.02-19.28,21.36-18.52,8.82-40.3,1.22-49.87-17.29v-39.97c22.15-2.27,41.81-13.95,54.22-32.32,2.38-3.52,1.42-8.31-2.13-10.67-3.55-2.36-8.38-1.41-10.76,2.11-9.5,14.08-24.44,23.24-41.33,25.43v-51.7c13.86-2.14,26.15-9.87,34-21.5,2.38-3.52,1.42-8.31-2.13-10.67s-8.38-1.41-10.76,2.11c-4.95,7.33-12.53,12.48-21.12,14.43v-32.89c0-4.24-3.48-7.69-7.75-7.69s-7.75,3.45-7.75,7.69v32.89c-8.58-1.95-16.16-7.09-21.12-14.43-1.15-1.71-2.91-2.86-4.94-3.26-2.04-.4-4.1,0-5.82,1.15-1.72,1.15-2.89,2.88-3.3,4.9-.41,2.01,0,4.06,1.16,5.77,7.85,11.62,20.14,19.36,34,21.5v51.69c-16.89-2.2-31.83-11.35-41.33-25.44-2.39-3.51-7.22-4.45-10.76-2.1-1.72,1.15-2.89,2.88-3.29,4.9-.41,2.01,0,4.07,1.16,5.77,12.4,18.37,32.05,30.06,54.22,32.33v39.71c-9.31,18.34-31.82,26.05-50.48,17.18-9.11-4.34-15.95-11.92-19.28-21.35-3.36-9.53-2.73-19.51,1.85-28.9l.14-.27c.08-.15.16-.3.22-.39,1.42-2.67,1.12-5.93-.77-8.32-1.88-2.38-5-3.44-7.94-2.72-.08.02-.67.19-.96.27-20.3,4.52-40.56-8.09-45.18-28.13-2.25-9.7-.53-19.69,4.81-28.13,5.45-8.59,13.74-14.35,24-16.66.25-.05.82-.13.83-.13,2.98-.58,5.37-2.85,6.06-5.79.69-2.93-.41-6.02-2.85-7.87-.06-.05-.55-.39-.78-.55-7.85-6.22-12.79-15.1-13.92-24.99-1.13-9.91,1.71-19.65,8.01-27.45,12.98-16.11,36.93-18.64,53.43-5.65.07.06.16.14.26.22l.36.32c2.34,1.96,5.62,2.37,8.37,1.05,2.74-1.31,4.46-4.11,4.38-7.17,0-.08-.04-.59-.05-.88.05-20.57,16.98-37.29,37.79-37.29s37.75,16.72,37.79,37.3l-.05.8c0,.15-.02.3-.02.4-.13,3.02,1.56,5.84,4.26,7.18,2.72,1.37,6.02,1.01,8.43-.96.06-.05.5-.43.71-.62,16.3-12.8,40.09-10.13,53.07,5.96,6.28,7.8,9.13,17.55,8.01,27.47-1.14,10.05-6.1,18.78-14.32,25.26l-.68.47c-2.42,1.8-3.58,4.86-2.93,7.79.64,2.93,2.97,5.24,5.92,5.89l1.05.18c9.83,2.24,18.19,8.12,23.54,16.58,5.26,8.29,7,18.09,4.91,27.65l-.11.47c-4.63,20.07-24.87,32.68-45.16,28.14l-.42-.12c-.23-.06-.67-.19-.86-.24-2.95-.78-6.09.26-8,2.6Z"/>
  </g>
</svg>