<?xml version="1.0" encoding="UTF-8"?>
<svg id="uuid-4f8c5863-1924-42f6-889c-3a8819a6d01e" data-name="Capa 1" xmlns="http://www.w3.org/2000/svg" viewBox="0 0 500 463.81">
  <defs>
    <style>
      .uuid-080664d1-3951-427e-81b4-5f7906f2adc6 {
        fill: #ff8e71;
      }

      .uuid-3b0636e3-48d9-4c3b-83c6-f59191f9dd98 {
        fill: #444950;
      }
    </style>
  </defs>
  <path class="uuid-3b0636e3-48d9-4c3b-83c6-f59191f9dd98" d="m268.71,269.01c2.37-9.89,3.64-20.03,3.64-30.32,0-71-57.31-128.78-127.91-128.78S16.52,167.7,16.52,238.7s57.39,128.86,127.91,128.86c2.3,0,4.59-.08,6.81-.24,1.03,53.35,44.41,96.49,97.68,96.49s97.68-44.17,97.68-98.39h0c0-47.41-33.48-86.99-77.97-96.25l.08-.16Zm-124.27,79.47c-60.08,0-109-49.23-109-109.79s48.92-109.79,109-109.79,109,49.23,109,109.79c0,9.58-1.27,19.08-3.72,28.26h-.87c-48.05,0-88.02,35.14-96.09,81.29-2.77.24-5.62.32-8.39.32l.08-.08Zm104.48,96.17c-43.46,0-78.84-35.62-78.84-79.39s35.38-79.39,78.84-79.39,78.84,35.62,78.84,79.39-35.38,79.39-78.84,79.39Z"/>
  <path class="uuid-3b0636e3-48d9-4c3b-83c6-f59191f9dd98" d="m243.86,301.31c-25.01-1.9-47.18,20.66-49.39,50.18-.16,2.37,1.35,4.51,3.32,4.67s3.8-1.66,4.04-4.12c1.82-24.78,20.42-43.61,41.32-42.03,2.06.16,3.8-1.66,4.04-4.12.16-2.37-1.35-4.51-3.32-4.67v.08Z"/>
  <path class="uuid-3b0636e3-48d9-4c3b-83c6-f59191f9dd98" d="m137.95,144.11c-44.41,0-80.5,42.66-80.5,95.14,0,4.27,2.93,7.76,6.57,7.76s6.57-3.48,6.57-7.76c0-43.93,30.24-79.71,67.44-79.71,3.64,0,6.57-3.48,6.57-7.76s-2.93-7.76-6.57-7.76l-.08.08Z"/>
  <path class="uuid-3b0636e3-48d9-4c3b-83c6-f59191f9dd98" d="m289.07,0c-1.74.47-3.72,1.58-4.75,2.69-.55.63-3.32,5.38-6.09,10.53-5.54,10.21-7.99,14.33-10.13,17.41-5.94,8.39-14.09,16.62-22.64,22.8-3.72,2.61-7.76,4.99-18.44,10.84-9.66,5.3-10.92,6.17-12.27,8.94-1.03,2.06-1.03,5.7,0,7.92,1.11,2.53,2.85,3.88,10.92,8.23,15.28,8.31,18.68,10.45,24.7,15.28,8.39,6.81,15.83,15.44,21.45,25.01,1.03,1.74,4.04,7.2,6.73,12.11,3.4,6.33,5.22,9.26,6.09,10.21l1.35,1.35h10.84l1.27-1.27c.87-.87,2.93-4.35,7.04-11.87,7.76-14.25,11.08-19.23,17.65-26.44,4.99-5.46,12.03-11.32,18.52-15.36,1.58-1.03,7.44-4.35,12.98-7.36,6.73-3.64,10.61-6.02,11.56-6.89l1.42-1.35v-10.84l-1.03-1.19c-.71-.79-2.93-2.22-6.73-4.27-3.17-1.74-8.15-4.51-11.16-6.17-10.21-5.62-15.91-9.82-23.19-17.1-8.15-8.15-11.56-13.06-20.11-28.81-3.25-6.02-6.17-10.92-6.81-11.56-1.58-1.66-3.72-2.61-6.25-2.77-1.19,0-2.53,0-3.01.16l.08-.24Z"/>
  <path class="uuid-080664d1-3951-427e-81b4-5f7906f2adc6" d="m293.43,33.01c2.61,4.59,6.17,9.89,9.82,14.49,3.56,4.51,12.74,13.77,17.02,17.18,5.7,4.59,8.39,6.33,17.89,11.95l.87.55-1.5.79c-10.92,6.25-17.57,11.24-25.73,19.39-7.36,7.28-14.49,16.62-18.76,24.54-.79,1.58-1.58,2.85-1.66,2.85s-.47-.63-.79-1.35c-1.19-2.45-5.78-9.74-8.23-13.06-9.5-12.82-21.93-23.83-35.62-31.66-1.58-.87-2.77-1.58-2.69-1.66s1.42-.87,3.09-1.82c12.66-7.2,23.27-16.31,32.45-27.7,3.01-3.72,7.76-10.77,10.05-14.88.87-1.66,1.74-2.93,1.82-2.93.16,0,1.03,1.5,2.06,3.32h-.08Z"/>
  <path class="uuid-3b0636e3-48d9-4c3b-83c6-f59191f9dd98" d="m402.48,141.18c-2.22.55-4.59,1.98-5.86,3.32-.71.79-4.12,6.65-7.6,13.06-6.97,12.66-9.97,17.89-12.59,21.69-7.36,10.45-17.57,20.74-28.1,28.34-4.59,3.25-9.66,6.25-22.95,13.54-12.03,6.57-13.61,7.68-15.28,11.08-1.27,2.61-1.27,7.04,0,9.82,1.42,3.17,3.56,4.75,13.61,10.21,19,10.37,23.27,13.06,30.71,19,10.45,8.47,19.63,19.16,26.68,31.11,1.27,2.22,5.07,8.94,8.39,15.04,4.2,7.84,6.49,11.56,7.6,12.66l1.66,1.66h13.54l1.58-1.58c1.11-1.11,3.72-5.46,8.71-14.8,9.66-17.81,13.77-23.9,22-32.93,6.17-6.81,14.96-14.09,23.03-19.16,1.98-1.27,9.26-5.38,16.23-9.18,8.39-4.59,13.22-7.44,14.41-8.63l1.74-1.66v-13.46l-1.35-1.42c-.87-.95-3.72-2.77-8.39-5.38-3.88-2.14-10.13-5.54-13.85-7.68-12.74-7.04-19.79-12.19-28.81-21.29-10.13-10.13-14.41-16.31-25.01-35.86-4.04-7.44-7.68-13.61-8.47-14.41-1.98-2.06-4.67-3.25-7.84-3.48-1.42,0-3.09,0-3.8.16v.24Z"/>
  <path class="uuid-080664d1-3951-427e-81b4-5f7906f2adc6" d="m407.94,182.26c3.17,5.7,7.76,12.35,12.19,18.05,4.43,5.62,15.83,17.18,21.13,21.37,7.12,5.7,10.45,7.92,22.24,14.88l1.11.63-1.82,1.03c-13.54,7.76-21.85,14.01-31.98,24.14-9.1,9.1-17.97,20.74-23.35,30.55-1.03,1.9-1.98,3.48-2.14,3.48-.08,0-.55-.79-.95-1.66-1.5-3.09-7.2-12.11-10.29-16.23-11.79-15.99-27.31-29.68-44.41-39.34-1.9-1.03-3.48-1.98-3.4-2.06s1.82-1.11,3.88-2.3c15.75-9.02,28.89-20.26,40.37-34.43,3.8-4.67,9.66-13.38,12.51-18.52,1.11-2.06,2.22-3.72,2.3-3.72.16,0,1.27,1.9,2.53,4.12h.08Z"/>
  <path class="uuid-3b0636e3-48d9-4c3b-83c6-f59191f9dd98" d="m52.7,356.24c-1.27.32-2.61,1.11-3.32,1.9-.4.4-2.37,3.72-4.27,7.36-3.88,7.12-5.62,10.05-7.12,12.19-4.12,5.94-9.89,11.71-15.83,15.99-2.61,1.82-5.46,3.56-12.98,7.6-6.81,3.72-7.68,4.27-8.63,6.25-.71,1.5-.71,3.96,0,5.54.79,1.82,1.98,2.69,7.68,5.78,10.69,5.86,13.14,7.36,17.33,10.69,5.86,4.75,11.08,10.84,15.04,17.57.71,1.27,2.85,5.07,4.75,8.47,2.37,4.43,3.64,6.49,4.27,7.12l.95.95h7.6l.87-.95c.63-.63,2.06-3.09,4.91-8.31,5.46-10.05,7.76-13.46,12.43-18.52,3.48-3.8,8.47-7.92,12.98-10.77,1.11-.71,5.22-3.01,9.1-5.15,4.75-2.53,7.44-4.2,8.15-4.83l1.03-.95v-7.6l-.71-.79c-.47-.55-2.06-1.58-4.75-3.01-2.22-1.19-5.7-3.17-7.84-4.27-7.2-3.96-11.16-6.89-16.23-12.03-5.7-5.7-8.15-9.18-14.09-20.18-2.3-4.2-4.27-7.68-4.75-8.15-1.11-1.19-2.61-1.82-4.43-1.98-.79,0-1.74,0-2.14.08Z"/>
  <path class="uuid-080664d1-3951-427e-81b4-5f7906f2adc6" d="m55.78,379.44c1.82,3.25,4.35,6.97,6.89,10.21,2.53,3.17,8.94,9.66,11.95,12.03,4.04,3.25,5.94,4.43,12.51,8.39l.63.4-1.03.55c-7.68,4.35-12.35,7.92-18.05,13.61-5.15,5.15-10.13,11.71-13.14,17.26-.55,1.11-1.11,1.98-1.19,1.98,0,0-.32-.4-.55-.95-.87-1.74-4.04-6.81-5.78-9.18-6.65-9.02-15.36-16.7-25.01-22.16-1.11-.63-1.98-1.11-1.9-1.19s1.03-.63,2.22-1.27c8.87-5.07,16.31-11.4,22.8-19.39,2.14-2.61,5.46-7.52,7.04-10.45.63-1.11,1.27-2.06,1.27-2.06.08,0,.71,1.03,1.42,2.37l-.08-.16Z"/>
</svg>