<svg width="68" height="53" viewBox="0 0 68 53" fill="none" xmlns="http://www.w3.org/2000/svg">
<g clip-path="url(#clip0_1274_1195)">
<path d="M12.0098 0C16.9598 0 20.9698 4.06 20.9698 9.06C20.9698 14.07 16.9598 18.12 12.0098 18.12C7.0598 18.12 3.0498 14.06 3.0498 9.06C3.0498 4.06 7.0598 0 12.0098 0Z" fill="#E3F0F6"/>
<path d="M54.2705 22.09H55.6505C59.8405 22.09 63.2305 25.52 63.2305 29.76C63.2305 34 59.8405 37.43 55.6505 37.43H54.2705C50.0805 37.43 46.6905 34 46.6905 29.76C46.6805 25.53 50.0805 22.09 54.2705 22.09Z" fill="#FCEDEA"/>
<path d="M43.5898 52.71C32.5098 52.72 22.8298 45.12 20.0898 34.28C16.7498 21.16 24.5798 7.77002 37.5498 4.41002C50.5198 1.05002 63.7498 8.96002 67.0798 22.08C70.3998 35.2 62.5899 48.59 49.6098 51.95C47.6498 52.46 45.6298 52.71 43.5898 52.71ZM43.5898 7.23002C32.1498 7.24002 22.8698 16.64 22.8898 28.21C22.8898 29.95 23.1098 31.7 23.5398 33.38C26.3798 44.59 37.6698 51.34 48.7498 48.47C59.8298 45.6 66.4998 34.18 63.6598 22.97C61.2998 13.7 53.0398 7.23002 43.5898 7.23002Z" fill="#444950"/>
<path d="M24.4803 3.99006C21.7403 2.43006 16.8403 5.91006 13.5203 11.7501C10.2103 17.5901 9.74028 23.5801 12.4803 25.1301" stroke="#444950" stroke-width="2.8346" stroke-miterlimit="10" stroke-linecap="round" stroke-linejoin="round"/>
<path d="M11.6199 24.5699C5.70992 24.5699 1.41992 28.9199 1.41992 34.2799C1.41992 39.6499 6.19992 43.9999 12.1099 43.9999" stroke="#444950" stroke-width="2.8346" stroke-miterlimit="10" stroke-linecap="round" stroke-linejoin="round"/>
<path d="M5.48047 34.3C5.48047 35.11 6.11047 35.76 6.89047 35.76C7.67047 35.76 8.30047 35.11 8.30047 34.3C8.30047 33.49 7.67047 32.84 6.89047 32.84C6.11047 32.84 5.48047 33.49 5.48047 34.3Z" fill="#444950"/>
<path d="M12.7998 25.52C14.7898 27.96 20.6298 26.5 25.8198 22.26" stroke="#444950" stroke-width="2.8346" stroke-miterlimit="10" stroke-linecap="round" stroke-linejoin="round"/>
<path d="M51.01 26.28C45.7 18.14 33.61 15.33 25.71 22.33" stroke="#444950" stroke-width="2.8346" stroke-miterlimit="10" stroke-linecap="round" stroke-linejoin="round"/>
<path d="M39.0296 5.63004C36.4296 2.24004 28.4596 3.99004 21.2196 9.54004C13.9896 15.08 10.2396 22.33 12.8396 25.72" stroke="#444950" stroke-width="2.8346" stroke-miterlimit="10" stroke-linecap="round" stroke-linejoin="round"/>
<path d="M35.5899 24.75C32.3899 27.64 32.5699 33.06 35.9999 36.84C39.4199 40.62 44.7899 41.34 47.9899 38.45" stroke="#444950" stroke-width="2.8346" stroke-miterlimit="10" stroke-linecap="round" stroke-linejoin="round"/>
<path d="M47.9902 38.45L57.4102 46.77" stroke="#444950" stroke-width="2.8346" stroke-miterlimit="10" stroke-linecap="round" stroke-linejoin="round"/>
<path d="M54.9597 34.29C57.4615 34.29 59.4897 32.2618 59.4897 29.76C59.4897 27.2581 57.4615 25.23 54.9597 25.23C52.4578 25.23 50.4297 27.2581 50.4297 29.76C50.4297 32.2618 52.4578 34.29 54.9597 34.29Z" stroke="#444950" stroke-width="2.8346" stroke-miterlimit="10" stroke-linecap="round" stroke-linejoin="round"/>
<path d="M58 9.62L27.71 43.78" stroke="#444950" stroke-width="2.8346" stroke-miterlimit="10" stroke-linecap="round" stroke-linejoin="round"/>
</g>
<defs>
<clipPath id="clip0_1274_1195">
<rect width="67.84" height="52.71" fill="white"/>
</clipPath>
</defs>
</svg>
