<svg width="258" height="295" viewBox="0 0 258 295" fill="none" xmlns="http://www.w3.org/2000/svg">
<path d="M19.98 240.02C17.86 237.94 14.94 236.64 11.7 236.64C8.47 236.64 5.54 237.94 3.42 240.02C1.31 242.11 0 244.99 0 248.18C0 251.37 1.31 254.25 3.43 256.34C5.55 258.42 8.47 259.72 11.71 259.72C18.17 259.72 23.41 254.55 23.41 248.18C23.41 244.99 22.09 242.11 19.98 240.02Z" fill="#FCEDEA"/>
<path d="M11.7 115.43C8.47 115.43 5.54 116.73 3.42 118.81C1.31 120.9 0 123.79 0 126.98V196.24C0 202.61 5.24 207.78 11.7 207.78C18.16 207.78 23.4 202.61 23.4 196.24V126.98C23.41 120.6 18.17 115.43 11.7 115.43Z" fill="#FCEDEA"/>
<path d="M58.5203 213.55C52.0603 213.55 46.8203 218.72 46.8203 225.09V248.18C46.8203 254.55 52.0603 259.72 58.5203 259.72C61.7503 259.72 64.6803 258.43 66.8003 256.34C68.9103 254.25 70.2303 251.36 70.2303 248.18V225.1C70.2203 218.72 64.9803 213.55 58.5203 213.55Z" fill="#FCEDEA"/>
<path d="M105.33 109.66C98.8699 109.66 93.6299 114.83 93.6299 121.2V173.15C93.6299 179.52 98.8699 184.69 105.33 184.69C108.56 184.69 111.49 183.39 113.61 181.31C115.72 179.22 117.04 176.33 117.04 173.15V121.2C117.03 114.83 111.79 109.66 105.33 109.66Z" fill="#FCEDEA"/>
<path d="M152.14 253.95C132.78 253.95 117.03 238.42 117.03 219.32C117.03 212.95 111.79 207.78 105.33 207.78C98.8699 207.78 93.6299 212.95 93.6299 219.32C93.6299 251.15 119.88 277.04 152.15 277.04C158.61 277.04 163.85 271.87 163.85 265.5C163.84 259.12 158.6 253.95 152.14 253.95Z" fill="#FCEDEA"/>
<path d="M152.14 190.46C148.91 190.46 145.98 191.75 143.86 193.84C141.75 195.93 140.43 198.82 140.43 202V219.32C140.43 225.7 145.67 230.86 152.13 230.86C158.59 230.86 163.83 225.69 163.83 219.32V202C163.84 195.63 158.6 190.46 152.14 190.46Z" fill="#FCEDEA"/>
<path d="M207.23 274.65C205.11 272.57 202.18 271.27 198.95 271.27C195.72 271.27 192.79 272.57 190.67 274.65C188.56 276.74 187.24 279.63 187.24 282.81C187.24 286 188.55 288.88 190.67 290.97C192.79 293.05 195.71 294.35 198.95 294.35C205.41 294.35 210.65 289.18 210.65 282.81C210.65 279.63 209.34 276.74 207.23 274.65Z" fill="#FCEDEA"/>
<path d="M245.76 196.24C239.3 196.24 234.06 201.41 234.06 207.78V219.32C234.06 225.7 239.3 230.86 245.76 230.86C248.99 230.86 251.92 229.56 254.04 227.48C256.15 225.39 257.47 222.5 257.47 219.32V207.78C257.47 201.41 252.23 196.24 245.76 196.24Z" fill="#FCEDEA"/>
<path d="M198.95 63.4901C192.49 63.4901 187.25 68.6601 187.25 75.0301V103.89C187.25 107.08 185.94 109.96 183.82 112.05C181.7 114.13 178.77 115.43 175.54 115.43C169.08 115.43 163.84 110.26 163.84 103.89V92.3501C163.84 85.9801 158.6 80.8101 152.14 80.8101C132.78 80.8101 117.03 65.2801 117.03 46.1801C117.03 39.8001 111.79 34.6401 105.33 34.6401C98.8699 34.6401 93.6299 39.8101 93.6299 46.1801C93.6299 74.0601 113.77 97.3701 140.44 102.74V161.62C140.44 167.99 145.68 173.16 152.14 173.16C158.6 173.16 163.84 167.99 163.84 161.62V155.85C163.84 149.48 169.08 144.31 175.54 144.31C182 144.31 187.24 149.48 187.24 155.85V178.94C187.24 185.31 192.48 190.48 198.94 190.48C202.17 190.48 205.1 189.18 207.22 187.1C209.33 185.01 210.65 182.12 210.65 178.94V75.0301C210.65 68.6601 205.41 63.4901 198.95 63.4901Z" fill="#FCEDEA"/>
<path d="M198.95 0C192.49 0 187.25 5.17 187.25 11.54V17.31H210.66V11.54C210.65 5.17 205.41 0 198.95 0Z" fill="#FCEDEA"/>
<path d="M198.95 0C192.49 0 187.25 5.17 187.25 11.54V34.63C187.25 41.01 192.49 46.17 198.95 46.17C202.18 46.17 205.11 44.87 207.23 42.79C209.34 40.7 210.66 37.81 210.66 34.63V11.54C210.65 5.17 205.41 0 198.95 0Z" fill="#FCEDEA"/>
</svg>
