<svg width="24" height="24" viewBox="0 0 24 24" fill="none" xmlns="http://www.w3.org/2000/svg">
<rect width="24" height="24" rx="12" fill="#EFA693"/>
<g clip-path="url(#clip0_2767_9846)">
<path d="M8.58033 5C10.8577 5 13.1351 5 15.4124 5C15.457 5.00829 15.5005 5.01969 15.5451 5.02384C15.9276 5.06634 16.3018 5.1503 16.649 5.31512C18.1521 6.02621 18.9627 7.2162 18.9855 8.8799C19.0145 10.9562 18.9938 13.0335 18.9917 15.1108C18.9907 15.9151 18.774 16.6615 18.3065 17.3176C17.5135 18.4299 16.422 18.9876 15.0558 18.9917C13.0158 18.9969 10.9748 18.9959 8.93484 18.9896C8.67259 18.9886 8.40308 18.9751 8.14808 18.9191C6.56316 18.5677 5.54939 17.6048 5.11506 16.0406C5.05805 15.8364 5.03732 15.6218 5 15.4114C5 13.134 5 10.8567 5 8.5793C5.0228 8.43625 5.03732 8.29113 5.06945 8.15016C5.42603 6.56627 6.3859 5.54939 7.95217 5.11402C8.15637 5.05805 8.37095 5.03732 8.58033 5ZM17.752 12.0104C17.752 10.9945 17.753 9.97971 17.752 8.96387C17.752 8.64357 17.7198 8.32845 17.611 8.02369C17.2161 6.91559 16.2614 6.24389 15.06 6.24182C13.02 6.23767 10.98 6.23456 8.94003 6.247C8.63527 6.24907 8.31704 6.29157 8.02991 6.38798C6.91145 6.76425 6.24389 7.73345 6.24182 8.94314C6.23871 10.979 6.2356 13.0138 6.247 15.0496C6.24907 15.3544 6.29054 15.6726 6.38694 15.9608C6.76011 17.074 7.7262 17.7478 8.92655 17.7509C10.9759 17.7561 13.0252 17.7551 15.0745 17.7509C15.9867 17.7489 16.7237 17.385 17.2648 16.647C17.6131 16.1712 17.7551 15.6291 17.754 15.0434C17.7509 14.0317 17.752 13.021 17.752 12.0104Z" fill="white"/>
<path d="M11.9938 15.6021C10.0109 15.6001 8.38345 13.9685 8.38967 11.9907C8.39692 10.0067 10.0295 8.37928 12.0042 8.39068C13.9861 8.40105 15.5991 10.0171 15.6011 11.9949C15.6042 13.9737 13.9737 15.6042 11.9938 15.6021ZM14.3583 12.0011C14.3655 10.7033 13.3082 9.64183 12.0011 9.63458C10.7033 9.62732 9.64185 10.6846 9.63459 11.9918C9.62734 13.2895 10.6836 14.351 11.9907 14.3583C13.2885 14.3655 14.351 13.3082 14.3583 12.0011Z" fill="white"/>
<path d="M15.751 7.3418C16.2527 7.34076 16.6694 7.7585 16.6621 8.25399C16.6559 8.75051 16.2475 9.15477 15.7531 9.15581C15.2534 9.15684 14.8357 8.73807 14.8409 8.24258C14.8481 7.74606 15.2545 7.34284 15.751 7.3418Z" fill="white"/>
</g>
<defs>
<clipPath id="clip0_2767_9846">
<rect width="14" height="13.9938" fill="white" transform="translate(5 5)"/>
</clipPath>
</defs>
</svg>
