<svg width="32" height="33" viewBox="0 0 32 33" fill="none" xmlns="http://www.w3.org/2000/svg">
<rect x="0.5" y="0.833984" width="31" height="31" rx="15.5" stroke="white"/>
<g clip-path="url(#clip0_2767_9891)">
<path d="M11.4398 7.00098C14.4763 7.00098 17.5127 7.00098 20.5492 7.00098C20.6087 7.01203 20.6667 7.02724 20.7261 7.03276C21.2361 7.08943 21.7351 7.20138 22.1981 7.42114C24.2021 8.36926 25.2829 9.95591 25.3133 12.1742C25.352 14.9425 25.3244 17.7123 25.3216 20.482C25.3202 21.5545 25.0314 22.5496 24.4081 23.4245C23.3507 24.9075 21.8954 25.6511 20.0738 25.6566C17.3538 25.6635 14.6325 25.6621 11.9125 25.6538C11.5628 25.6524 11.2035 25.6345 10.8635 25.5598C8.75023 25.0913 7.39853 23.8073 6.81943 21.7217C6.74341 21.4495 6.71577 21.1634 6.66602 20.8828C6.66602 17.8463 6.66602 14.8099 6.66602 11.7734C6.69642 11.5826 6.71577 11.3891 6.75862 11.2012C7.23406 9.08933 8.51389 7.73349 10.6022 7.15301C10.8745 7.07837 11.1606 7.05073 11.4398 7.00098ZM23.6686 16.3481C23.6686 14.9937 23.67 13.6406 23.6686 12.2861C23.6686 11.8591 23.6258 11.4389 23.4807 11.0326C22.9541 9.5551 21.6812 8.6595 20.0793 8.65673C17.3593 8.65121 14.6394 8.64706 11.9194 8.66364C11.513 8.66641 11.0887 8.72308 10.7059 8.85161C9.21461 9.35331 8.32454 10.6456 8.32177 12.2585C8.31763 14.9729 8.31348 17.686 8.32868 20.4005C8.33145 20.8068 8.38673 21.2311 8.51527 21.6153C9.01282 23.0997 10.3009 23.9981 11.9014 24.0022C14.6338 24.0091 17.3662 24.0077 20.0987 24.0022C21.3149 23.9994 22.2976 23.5143 23.019 22.5303C23.4834 21.8959 23.6728 21.173 23.6714 20.3922C23.6672 19.0432 23.6686 17.6957 23.6686 16.3481Z" fill="white"/>
<path d="M15.9911 21.1368C13.3472 21.1341 11.1773 18.9587 11.1856 16.3216C11.1952 13.6763 13.3721 11.5064 16.005 11.5216C18.6475 11.5354 20.7981 13.6901 20.8009 16.3271C20.805 18.9656 18.631 21.1396 15.9911 21.1368ZM19.1437 16.3354C19.1534 14.605 17.7436 13.1898 16.0008 13.1801C14.2704 13.1704 12.8551 14.5802 12.8455 16.323C12.8358 18.0534 14.2442 19.4686 15.987 19.4783C17.7174 19.488 19.134 18.0783 19.1437 16.3354Z" fill="white"/>
<path d="M21.0016 10.123C21.6706 10.1217 22.2262 10.6787 22.2165 11.3393C22.2082 12.0013 21.6637 12.5403 21.0044 12.5417C20.3382 12.5431 19.7812 11.9847 19.7881 11.3241C19.7978 10.6621 20.3396 10.1244 21.0016 10.123Z" fill="white"/>
</g>
<defs>
<clipPath id="clip0_2767_9891">
<rect width="18.6667" height="18.6584" fill="white" transform="translate(6.66602 7.00098)"/>
</clipPath>
</defs>
</svg>
