<?xml version="1.0" encoding="UTF-8"?>
<svg id="uuid-d0d1732b-4696-471e-961b-4313cdcd4bd2" data-name="Capa 1" xmlns="http://www.w3.org/2000/svg" viewBox="0 0 500 380.43">
  <defs>
    <style>
      .uuid-f1f15beb-be8e-409e-818c-e4e925b1301b {
        fill: #fff;
      }

      .uuid-c759c375-72d0-40b7-9bfa-7ab3c7646f18 {
        fill: #e3f0f6;
      }

      .uuid-9b515d7e-4c28-43a5-8128-d3774416a170 {
        fill: #ff7b58;
      }

      .uuid-7c48816e-bfad-44ea-b214-0afca04cf7e1 {
        fill: #444950;
      }

      .uuid-3dc3eddd-f90b-4d5a-8ac8-511ca12aaa0e {
        fill: #65cbf2;
      }
    </style>
  </defs>
  <path class="uuid-7c48816e-bfad-44ea-b214-0afca04cf7e1" d="m344.07,21.5c-4.73,1.82-7.02,3.98-16.07,15.19-10.13,12.49-11.28,14.59-9.86,18.71.41,1.22,1.15,2.77,1.76,3.44.95,1.08.88,1.22-.27,2.09-2.9,2.09-6.48,3.51-12.97,4.86-21.14,4.32-44.37,15.6-65.64,31.67-3.44,2.57-6.48,4.66-6.82,4.66s-.61.27-.61.54-3.44,3.58-7.5,7.29c-10.2,9.12-17.42,17.09-35.79,39.78-69.62,85.76-102.44,126.48-103.73,128.71-.88,1.42-1.96,4.73-2.57,7.43-1.76,8.71.95,17.42,7.43,23.64,3.58,3.51,78.61,63.75,81.58,65.64,1.62,1.01,3.38,1.15,13.98,1.15h12.09l3.11-2.36c2.09-1.62,21.54-25.12,61.99-75.03,32.35-39.98,61.18-75.9,63.95-79.75,23.91-33.36,37.82-72.46,37.82-106.63,0-9.18,1.15-13.78,3.38-13.1.68.2,2.43.54,3.78.74,4.73.61,6.15-.47,16.75-13.57l9.72-12.09s5.14-9.84-1.08-18.44c-1.42-1.96-36.67-30.86-40.99-33.29-3.44-1.89-9.86-2.43-13.3-1.15l-.14-.14Z"/>
  <path class="uuid-f1f15beb-be8e-409e-818c-e4e925b1301b" d="m366.22,53.98l15.19,12.22-4.12,5.06c-2.3,2.77-4.25,5.13-4.32,5.27-.34.41-31.27-24.45-31.27-25.12,0-1.22,7.63-10.33,8.44-9.99.41.2,7.63,5.88,16,12.56h.07Z"/>
  <path class="uuid-c759c375-72d0-40b7-9bfa-7ab3c7646f18" d="m344.75,79.17l8.64,6.89-1.76,2.9c-3.65,5.94-5.81,15.4-5.13,23.16.68,8.58-1.82,25.05-5.88,38.42-2.16,7.36-6.82,19.79-7.63,20.66-.61.68-16.75-10.53-31.2-21.68-11.48-8.91-13.1-9.66-17.49-8.31-7.5,2.23-9.25,10.74-3.31,16.48,3.38,3.24,19.79,15.67,32.35,24.51,5.47,3.85,9.99,7.23,10.13,7.43.41,1.22-13.91,22.62-14.99,22.22-1.15-.41-86.78-69.08-86.78-69.69,0-.74,18.03-19.04,18.77-19.04.34,0,3.65,2.9,7.5,6.48,8.1,7.43,10.4,8.58,14.79,7.23,3.65-1.08,6.55-4.25,7.09-7.77.54-3.92-1.22-6.96-7.83-13.1-2.9-2.7-5.27-5.13-5.27-5.54,0-1.22,12.9-9.18,23.64-14.52,13.17-6.62,18.77-8.64,30.73-11.21,10.47-2.23,16.54-4.93,21.34-9.39,1.82-1.69,3.38-3.04,3.51-3.11,0,0,4.05,3.11,8.78,6.89v.07Z"/>
  <path class="uuid-3dc3eddd-f90b-4d5a-8ac8-511ca12aaa0e" d="m253.04,192.62c23.7,18.98,43.08,34.71,43.22,34.98s-11.75,15.19-26.27,33.22c-23.97,29.58-26.67,32.62-27.55,31.81-.61-.47-19.65-15.8-42.41-33.97-22.76-18.17-41.94-33.7-42.68-34.44l-1.42-1.28,26.54-32.75c14.59-18.03,26.74-32.62,27.01-32.41s19.85,15.87,43.56,34.85Z"/>
  <path class="uuid-c759c375-72d0-40b7-9bfa-7ab3c7646f18" d="m229.68,307.42l1.35,1.28-19.58,24.24c-10.74,13.3-20.26,24.72-21.27,25.32-1.96,1.28-4.59,1.42-6.55.41-2.5-1.28-79.35-63.34-79.96-64.49-1.08-2.03-.68-5.27.88-7.63,1.35-1.96,17.9-22.49,33.77-41.87l5.2-6.42,42.41,33.9c23.3,18.71,43.02,34.58,43.76,35.32v-.07Z"/>
  <path class="uuid-9b515d7e-4c28-43a5-8128-d3774416a170" d="m0,174.56h0l59.98,44.18.34,1.65h0c2.06-.4,3.88-1.55,5.06-3.19l32.04-47.18c2.29-3.41,1.16-7.91-2.44-10.02-3.6-2.11-8.4-1.23-10.69,2.18l-21.42,31.56c-9.22-55.58.09-98.97,27.42-129.6h0c22.62-25.4,54.2-37.82,80.36-43.9,26.02-6.07,46.47-5.74,47.02-5.76,4.29.1,7.83-3.1,7.89-7.07.06-4.03-3.31-7.3-7.59-7.4-1.87-.06-24.18-.39-52.32,6.21-28.07,6.66-62.16,20.33-87.3,48.5-30.71,34.4-40.9,82.3-30.68,142.32l-36.8-24.24h0c-3.47-2.3-8.34-1.55-10.85,1.74Z"/>
  <path class="uuid-9b515d7e-4c28-43a5-8128-d3774416a170" d="m500,182.76h0l-61.25-41.46-.47-1.69h0c-1.96.54-3.58,1.89-4.52,3.71l-26.54,51.39c-1.89,3.71-.47,8.31,3.17,10.26s8.17.61,10.06-3.11l17.76-34.44c13.64,57.06,8.58,102.92-14.86,136.75h0c-19.45,28.09-48.55,43.35-73.07,51.66-24.38,8.24-43.96,9.45-44.5,9.45-4.12.2-7.23,3.78-6.96,7.97s3.85,7.36,7.9,7.16c1.82-.07,23.16-1.35,49.43-10.4,26.27-8.98,57.67-25.8,79.28-56.93,26.34-38.02,31.87-88.6,16.88-150.26l37.34,22.42h0c3.51,2.16,8.1,1.01,10.2-2.57l.14.07Z"/>
</svg>