<svg width="57" height="57" viewBox="0 0 57 57" fill="none" xmlns="http://www.w3.org/2000/svg">
<g clip-path="url(#clip0_1275_1234)">
<path d="M39.9102 37.9301C44.8602 37.9301 48.8702 41.9901 48.8702 46.9901C48.8702 52.0001 44.8602 56.0501 39.9102 56.0501C34.9602 56.0501 30.9502 51.9901 30.9502 46.9901C30.9502 41.9901 34.9602 37.9301 39.9102 37.9301Z" fill="#E3F0F6"/>
<path fill-rule="evenodd" clip-rule="evenodd" d="M20.9599 34.0801H20.9899C21.8599 34.0901 22.5599 33.3901 22.5599 32.5201V31.65C22.5599 21.58 26.7699 19.35 27.5499 19.03H33.3399C34.1199 19.36 38.3299 21.58 38.3299 31.65V32.84C38.3299 33.6901 39.0099 34.3901 39.8599 34.4001C39.8699 34.4001 39.8799 34.4001 39.8999 34.4001C40.7699 34.4101 41.4899 33.7101 41.4899 32.84V31.65C41.4899 24.15 39.3899 20.18 37.3999 18.11C37.9699 17.54 38.3299 16.75 38.3299 15.87V12.71C38.3299 10.97 36.9199 9.55005 35.1699 9.55005H25.6999C23.9599 9.55005 22.5399 10.96 22.5399 12.71V15.87C22.5399 16.74 22.8999 17.54 23.4699 18.11C21.4899 20.18 19.3799 24.15 19.3799 31.65V32.5201C19.4099 33.3701 20.0999 34.0701 20.9599 34.0801ZM25.7199 12.71H35.1899V15.87H25.7199V12.71Z" fill="#444950"/>
<path d="M7.94043 25.29C7.94043 12.11 18.6304 1.42004 31.8104 1.42004C39.9504 1.42004 47.1404 5.49004 51.4504 11.71" stroke="#444950" stroke-width="2.8346" stroke-miterlimit="10" stroke-linecap="round" stroke-linejoin="round"/>
<path d="M47.4902 17.48C49.8902 18.38 54.8302 20.87 53.9102 23.31L55.8002 25.14C54.8802 27.57 57.3602 30.5 54.9502 29.59C52.5402 28.68 46.6102 25.39 47.5302 22.96L47.4602 20.88C48.4102 18.45 45.1002 16.58 47.4902 17.48Z" fill="#EAF6F2"/>
<path d="M54.7496 31.75C55.4096 32 55.2396 31.36 55.8396 31.74C56.0496 31.1 56.2296 30.45 56.3496 29.78L56.3796 29.65C56.3896 29.63 56.3896 29.6 56.3996 29.58C57.4196 23.51 53.6496 17.69 47.7396 16.21C47.5596 16.16 47.3796 16.14 47.1996 16.11L47.0096 16.08C46.4496 15.97 45.8896 16.35 45.7896 16.92C45.7396 17.16 45.7096 17.4 45.6796 17.65C44.9796 23.42 48.5296 28.82 54.0696 30.39C54.0296 30.52 54.7896 31.62 54.7496 31.75ZM47.7096 18.38C51.9696 19.7 54.7596 23.8 54.4396 28.29C50.1896 26.98 47.3896 22.87 47.7096 18.38Z" fill="#444950"/>
<path d="M54.8899 29.89C54.8899 39.34 47.2299 46.99 37.7899 46.99C29.2199 46.99 22.1199 40.69 20.8799 32.47" stroke="#444950" stroke-width="2.8346" stroke-miterlimit="10" stroke-linecap="round" stroke-linejoin="round"/>
<path d="M40.04 31.29V45.78" stroke="#444950" stroke-width="2.9764" stroke-miterlimit="10" stroke-linecap="round" stroke-linejoin="round"/>
<path d="M45.6096 12.28L15.3096 46.44" stroke="#444950" stroke-width="2.9764" stroke-miterlimit="10" stroke-linecap="round" stroke-linejoin="round"/>
<path d="M7.89 21.05H9.33C13.69 21.05 17.22 24.6201 17.22 29.0401C17.22 33.4601 13.69 37.03 9.33 37.03H7.89C3.53 37.03 0 33.4501 0 29.0401C0 24.6401 3.53 21.05 7.89 21.05Z" fill="#FCEDEA"/>
<path d="M8.60965 33.7599C11.2164 33.7599 13.3296 31.6467 13.3296 29.0399C13.3296 26.4332 11.2164 24.3199 8.60965 24.3199C6.00286 24.3199 3.88965 26.4332 3.88965 29.0399C3.88965 31.6467 6.00286 33.7599 8.60965 33.7599Z" stroke="#444950" stroke-width="2.8346" stroke-miterlimit="10" stroke-linecap="round" stroke-linejoin="round"/>
<path d="M39.9103 34.4H22.0303" stroke="#444950" stroke-width="2.9764" stroke-miterlimit="10" stroke-linecap="round" stroke-linejoin="round"/>
</g>
<defs>
<clipPath id="clip0_1275_1234">
<rect width="56.56" height="56.06" fill="white"/>
</clipPath>
</defs>
</svg>
