<?xml version="1.0" encoding="UTF-8"?>
<svg id="uuid-ac744922-1dd3-4a52-8605-d5fe76f2eebc" data-name="Capa 1" xmlns="http://www.w3.org/2000/svg" viewBox="0 0 429.31 500">
  <defs>
    <style>
      .uuid-49552ee0-d4c2-42a2-907c-05e0a852738f {
        fill: #5cd2ff;
      }

      .uuid-d78161e5-c812-4ba0-ae2d-105bdb127f65 {
        fill: #e3f0f6;
      }

      .uuid-67f2d7bb-b486-4145-a75a-c71316054961 {
        fill: #444950;
      }

      .uuid-5aa20e2b-5936-4e98-81c9-aa6d88a07e29 {
        fill: none;
        stroke: #ff7b58;
        stroke-linecap: round;
        stroke-width: 22px;
      }
    </style>
  </defs>
  <path class="uuid-d78161e5-c812-4ba0-ae2d-105bdb127f65" d="m211.02,145.14c10.62,55.73-45.73,89.99-75.24,100.15-13.28,0-46.91-3.48-75.24-17.42-35.41-17.42-30.98-69.67-17.7-108.85,10.62-31.35,60.48-79.83,84.09-100.15,23.6,18.87,73.47,70.54,84.09,126.27Z"/>
  <path class="uuid-49552ee0-d4c2-42a2-907c-05e0a852738f" d="m89.69,325.47c15.09,67.92,91.2,88.05,127.36,89.62l103.77-75.47c17.3-12.58,51.89-46.23,51.89-80.19,0-42.45-66.04-113.21-75.47-122.64s-66.04-89.62-70.75-94.34c-3.77-3.77-51.89,67.61-75.47,103.77-26.73,31.45-76.41,111.32-61.32,179.25Z"/>
  <path class="uuid-d78161e5-c812-4ba0-ae2d-105bdb127f65" d="m415.17,382.08c11.32,60.38-48.74,97.48-80.19,108.49-14.15,0-50-3.77-80.19-18.87-37.74-18.87-33.02-75.47-18.87-117.92,11.32-33.96,64.47-86.48,89.62-108.49,25.16,20.44,78.3,76.42,89.62,136.79Z"/>
  <path class="uuid-67f2d7bb-b486-4145-a75a-c71316054961" d="m394.12,311.43c-1.55-1.99-3.24-4.01-4.87-5.98-1.06-1.27-2.12-2.54-3.16-3.81-.22-.26-.31-.62-.26-.96.81-5.73,1.73-13.38,1.73-21.63,0-48.43-24.76-86.95-51.5-121.35-9.47-12.19-19.55-24.29-30.22-37.08-22.13-26.57-45.04-54.04-66.39-86.84-2.63-4.11-7.26-6.33-12.08-5.78-3.84.41-7.25,2.52-9.32,5.74-8.2,12.6-17.47,25.62-28.33,39.79-.24.3-.58.47-.99.49-.32.02-.71-.16-.94-.45-2.95-3.56-5.95-7.15-8.99-10.79-14.7-17.57-29.9-35.74-43.94-57.16-2.57-3.84-7.05-5.97-11.66-5.56l-.21.02c-3.72.42-7.03,2.45-9.12,5.58-14.03,21.38-29.33,39.53-44.12,57.07-7.07,8.39-13.74,16.3-20.08,24.32-18.42,23.31-35.43,49.43-35.43,82.53,0,39.43,20.97,73.57,56.09,91.35.46.24.73.75.67,1.26-.72,6.07-1.08,11.59-1.08,16.86,0,81.79,59.27,143.61,144.14,150.3.5.04.92.36,1.08.83,14.78,42.42,55.64,69.82,104.09,69.82,62.77,0,110.11-45.22,110.11-105.17-.01-33.53-16.91-59.9-35.2-83.4ZM172.05,96.01c-7,8.61-13.98,16.96-20.78,25.1-10.56,12.63-20.54,24.58-29.88,36.58-22.83,29.37-36.45,53-44.17,76.6-.12.36-.39.65-.75.79-.35.14-.76.09-1.08-.1-23.1-13.99-35.83-37.22-35.83-65.39,0-24.07,11.93-44.14,29.85-66.85,5.27-6.68,11.06-13.68,17.24-21.17,11.36-13.76,24.23-29.35,36.67-46.39.24-.32.61-.51,1.01-.51s.77.19,1.01.51c12.89,17.73,25.95,33.76,37.57,48,3.14,3.86,6.2,7.61,9.16,11.26.35.47.35,1.13-.03,1.58Zm37.3,303.67c.06.77.12,1.53.17,2.29.02.37-.12.72-.39.98-.27.26-.71.37-1.01.32-68.58-8.51-112.88-57.27-112.88-124.23,0-38.65,18.37-70.19,45.93-105.65,8.4-10.8,17.61-22.02,27.35-33.89,18.44-22.47,39.35-47.92,59.17-76.18.24-.34.61-.54,1.02-.54s.78.2,1.02.52c19.82,28.26,40.72,53.73,59.23,76.26,9.73,11.85,18.92,23.04,27.29,33.82,21.55,27.7,41.94,58.38,45.27,94.85.05.55-.26,1.06-.77,1.27-.51.21-1.08.06-1.43-.37-11.71-14.43-21.06-27.14-29.43-40-2.63-4.11-7.27-6.32-12.08-5.78-3.84.41-7.25,2.52-9.32,5.74-14.03,21.54-29.18,39.71-43.83,57.28-7.18,8.61-13.97,16.75-20.41,25.02-18.27,23.49-35.18,49.86-35.18,83.41,0,1.63.12,3.18.26,4.87Zm54.93-72.55c5.36-6.89,11.26-14.13,17.5-21.81,11.27-13.86,24.05-29.56,36.4-46.63.24-.32.61-.51,1.01-.51s.77.19,1.01.51c12.37,17.08,25.14,32.78,36.44,46.67,6.23,7.66,12.12,14.89,17.47,21.77,17.91,23.03,29.84,43.36,29.84,67.71,0,47.7-34.06,79.75-84.76,79.75s-84.76-32.05-84.76-79.75c.01-24.35,11.94-44.67,29.85-67.71Z"/>
  <path class="uuid-5aa20e2b-5936-4e98-81c9-aa6d88a07e29" d="m11,470.21L414.03,44.16"/>
</svg>