<svg width="65" height="54" viewBox="0 0 65 54" fill="none" xmlns="http://www.w3.org/2000/svg">
<g clip-path="url(#clip0_1274_1163)">
<path d="M11.9698 0C16.9198 0 20.9298 4.06 20.9298 9.06C20.9298 14.07 16.9198 18.12 11.9698 18.12C7.01977 18.12 3.00977 14.06 3.00977 9.06C3.00977 4.06 7.01977 0 11.9698 0Z" fill="#E3F0F6"/>
<path d="M32.6403 18.67C36.0603 18.67 43.4103 19.45 43.4103 22.92L46.6403 24.31C46.6403 27.78 51.1103 30.26 47.6703 30.26C44.2303 30.26 35.2803 28.95 35.2803 25.48L34.2203 22.91C34.2403 19.45 29.2303 18.67 32.6403 18.67Z" fill="#EAF6F2"/>
<path d="M11.7196 11.25C12.9196 11.25 13.8796 10.27 13.8796 9.06C13.8796 7.85 12.9096 6.87 11.7196 6.87C10.5196 6.87 9.55957 7.85 9.55957 9.06C9.55957 10.27 10.5196 11.25 11.7196 11.25Z" fill="#444950"/>
<path d="M8.19 41.5001C7.84 41.5001 7.52 41.4901 7.21 41.4701C2.83 41.1501 0 38.2601 0 34.1001C0 29.9101 2.83 27.0301 7.21 26.7101C11.83 26.3701 18.52 28.5401 26.27 31.0401C28.26 31.6901 30.31 32.3501 32.39 32.9901C34.47 33.6201 36.54 34.3001 38.54 34.9501C45.76 37.2801 52.57 39.4901 56.75 39.1801C59.95 38.9501 61.85 37.0501 61.85 34.1001C61.85 31.1201 59.95 29.2201 56.75 29.0001C54.09 28.9501 51.44 29.3301 48.88 30.1001L48.32 27.8801C51.11 27.0401 53.99 26.6601 56.9 26.7101C61.27 27.0301 64.1 29.9101 64.1 34.0801C64.1 38.2701 61.27 41.1501 56.9 41.4701C52.28 41.8101 45.59 39.6401 37.84 37.1401C35.85 36.4901 33.8 35.8301 31.72 35.1901C29.64 34.5601 27.57 33.8801 25.57 33.2301C18.36 30.9001 11.55 28.6901 7.36 29.0001C4.16 29.2301 2.26 31.1301 2.26 34.0801C2.26 37.0601 4.16 38.9601 7.36 39.1801C10.16 39.2101 12.95 38.8101 15.63 37.9801L16.2 40.2001C13.58 40.9701 10.9 41.4101 8.19 41.5001Z" fill="#444950"/>
<path d="M47.4898 21.59C44.5098 16.37 40.4698 12.26 37.2098 8.96001C34.7398 6.45001 32.1798 3.85001 32.1798 2.59001C32.1798 1.65001 31.4198 0.890015 30.4798 0.890015C29.5398 0.890015 28.7798 1.65001 28.7798 2.59001C28.7798 3.85001 26.2198 6.45001 23.7498 8.96001C20.4998 12.26 16.4498 16.37 13.4698 21.59C7.39978 32.22 13.2098 42.93 13.4598 43.38C13.6098 43.65 13.8398 43.88 14.1298 44.04C17.6698 49.61 23.8798 53.04 30.3998 53.04C30.4898 53.04 30.5798 53.04 30.6698 53.04C31.8498 53.04 33.0398 52.93 34.2098 52.7C41.2498 51.38 46.9798 46.27 49.1398 39.42C49.2098 39.3 49.2598 39.18 49.2998 39.06C50.5898 34.8 51.3198 28.3 47.4898 21.59ZM33.7098 19.95C39.2998 19.77 44.2698 23.28 46.0198 28.62C40.4398 28.81 35.4698 25.3 33.7098 19.95ZM32.3098 16.67C32.1298 16.69 31.9598 16.72 31.7998 16.76L31.3298 16.86C30.8898 16.93 30.5098 17.17 30.2498 17.54C29.9898 17.91 29.8898 18.37 29.9698 18.82C30.0298 19.15 30.0998 19.48 30.1798 19.8C32.0498 27.42 38.9598 32.51 46.6698 32C46.7098 32.47 46.7298 32.95 46.7298 33.42C46.6798 40.65 41.8398 47.07 34.9698 49.04C30.8398 50.23 26.4998 49.72 22.7398 47.63C18.9298 45.5 16.1798 42 14.9898 37.77C14.9598 37.65 14.9098 37.53 14.8698 37.47C13.9398 33.87 13.4598 28.49 16.4298 23.28C19.1898 18.45 23.0598 14.52 26.1798 11.35C27.9098 9.59001 29.4198 8.06001 30.4898 6.64001C31.5598 8.05001 33.0698 9.59001 34.7998 11.35C36.6498 13.23 38.8998 15.52 41.0198 18.16C38.3098 16.84 35.3198 16.32 32.3098 16.67Z" fill="#444950"/>
<path d="M17.1396 37.5H18.5196C22.7096 37.5 26.0996 40.93 26.0996 45.17C26.0996 49.41 22.7096 52.84 18.5196 52.84H17.1396C12.9496 52.84 9.55959 49.41 9.55959 45.17C9.54959 40.94 12.9396 37.5 17.1396 37.5Z" fill="#FCEDEA"/>
<path d="M17.82 49.7C20.3219 49.7 22.35 47.6719 22.35 45.17C22.35 42.6682 20.3219 40.64 17.82 40.64C15.3182 40.64 13.29 42.6682 13.29 45.17C13.29 47.6719 15.3182 49.7 17.82 49.7Z" stroke="#444950" stroke-width="2.8346" stroke-miterlimit="10" stroke-linecap="round" stroke-linejoin="round"/>
<path d="M29.1104 44.31C29.1104 44.31 40.5904 45.54 42.7204 35.52" stroke="#444950" stroke-width="2.8346" stroke-miterlimit="10" stroke-linecap="round" stroke-linejoin="round"/>
</g>
<defs>
<clipPath id="clip0_1274_1163">
<rect width="64.12" height="53.05" fill="white"/>
</clipPath>
</defs>
</svg>
