<svg width="24" height="24" viewBox="0 0 24 24" fill="none" xmlns="http://www.w3.org/2000/svg">
<rect width="24" height="24" rx="12" fill="#75B3CB"/>
<path d="M11.4212 19C11.2168 19 11.0125 19 10.8053 19C10.7741 18.9912 10.7428 18.9853 10.7116 18.9766C10.4165 18.9121 10.1099 18.8769 9.82612 18.7802C7.84225 18.0886 6.70983 16.1017 7.06459 13.9653C7.39382 11.9901 9.15631 10.472 11.0976 10.4896C11.319 10.4926 11.4808 10.6362 11.4808 10.8647C11.4864 11.5446 11.4864 12.2275 11.4808 12.9073C11.4779 13.1359 11.3247 13.2766 11.1004 13.2883C11.0323 13.2913 10.9614 13.3 10.8933 13.3088C10.1213 13.4261 9.58204 14.2056 9.72678 15.0056C9.86869 15.7998 10.635 16.3361 11.3899 16.1691C12.0654 16.0196 12.5195 15.4364 12.5224 14.7096C12.5224 11.9725 12.5252 9.23535 12.5195 6.4982C12.5195 6.26375 12.5876 6.09964 12.7948 6C13.5157 6 14.2366 6 14.9575 6C15.1562 6.08792 15.2328 6.24324 15.2413 6.46889C15.2498 6.68282 15.2839 6.89968 15.3435 7.10482C15.6415 8.12759 16.51 8.80455 17.5629 8.85437C17.8723 8.86903 18 9.00676 18 9.32033C18 9.95627 18 10.5893 18 11.2252C18 11.5095 17.8467 11.6648 17.5714 11.6589C16.7909 11.6443 16.0474 11.4655 15.3463 11.1021C15.3123 11.0845 15.2782 11.0699 15.2328 11.0464C15.2328 11.1197 15.2328 11.1695 15.2328 11.2223C15.2328 12.4267 15.2442 13.6341 15.2271 14.8386C15.2044 16.7112 13.9471 18.3611 12.196 18.8447C11.9462 18.915 11.6823 18.9502 11.4212 19Z" fill="white"/>
</svg>
