<svg width="32" height="32" viewBox="0 0 32 32" fill="none" xmlns="http://www.w3.org/2000/svg">
<rect x="0.5" y="0.5" width="31" height="31" rx="15.5" stroke="white"/>
<path d="M15.2279 25.3333C14.9554 25.3333 14.683 25.3333 14.4067 25.3333C14.3651 25.3216 14.3235 25.3138 14.2818 25.3021C13.8883 25.2161 13.4796 25.1692 13.1012 25.0403C10.456 24.1181 8.94611 21.4689 9.41913 18.6204C9.8581 15.9868 12.2081 13.9627 14.7965 13.9862C15.0917 13.9901 15.3074 14.1815 15.3074 14.4863C15.3149 15.3928 15.3149 16.3033 15.3074 17.2098C15.3036 17.5146 15.0992 17.7021 14.8003 17.7178C14.7095 17.7217 14.6148 17.7334 14.524 17.7451C13.4947 17.9014 12.7757 18.9408 12.9687 20.0075C13.1579 21.0664 14.1797 21.7815 15.1863 21.5588C16.0869 21.3595 16.6924 20.5819 16.6962 19.6129C16.6962 15.9633 16.6999 12.3138 16.6924 8.66426C16.6924 8.35167 16.7832 8.13285 17.0594 8C18.0206 8 18.9818 8 19.943 8C20.2079 8.11722 20.3101 8.32432 20.3214 8.62519C20.3328 8.91043 20.3782 9.19958 20.4577 9.4731C20.855 10.8368 22.013 11.7394 23.4169 11.8058C23.8294 11.8254 23.9997 12.009 23.9997 12.4271C23.9997 13.275 23.9997 14.119 23.9997 14.9669C23.9997 15.346 23.7953 15.5531 23.4283 15.5452C22.3876 15.5257 21.3961 15.2873 20.4614 14.8028C20.416 14.7794 20.3706 14.7598 20.3101 14.7286C20.3101 14.8263 20.3101 14.8927 20.3101 14.963C20.3101 16.569 20.3252 18.1788 20.3025 19.7848C20.2722 22.2816 18.5958 24.4815 16.261 25.1262C15.928 25.22 15.576 25.2669 15.2279 25.3333Z" fill="white"/>
</svg>
