<svg width="39" height="48" viewBox="0 0 39 48" fill="none" xmlns="http://www.w3.org/2000/svg">
<path d="M16.443 47.5C7.64949 47.5 0.5 40.3886 0.5 31.6544C0.5 22.9271 7.64936 15.8156 16.443 15.8156C25.2364 15.8156 32.3859 22.927 32.3859 31.6612C32.3859 40.3884 25.2366 47.5 16.443 47.5ZM16.443 17.2552C8.45943 17.2552 1.96099 23.7109 1.96099 31.6544C1.96099 39.5979 8.45943 46.0536 16.443 46.0536C24.4265 46.0536 30.9249 39.5979 30.9249 31.6544C30.9249 23.7178 24.4267 17.2552 16.443 17.2552Z" fill="white" stroke="white"/>
<path d="M31.2164 37.9989C27.6926 37.9989 24.8311 35.1501 24.8311 31.6544C24.8311 28.1586 27.6926 25.3098 31.2164 25.3098C34.7401 25.3098 37.6015 28.1584 37.6017 31.654C37.5951 35.1507 34.7327 37.9989 31.2164 37.9989ZM31.2164 26.2548C28.223 26.2548 25.7808 28.6783 25.7808 31.6611C25.7808 34.6436 28.2157 37.0675 31.2164 37.0675C34.2102 37.0675 36.6452 34.6504 36.6452 31.6611C36.6452 28.6715 34.2029 26.2548 31.2164 26.2548Z" fill="white" stroke="white"/>
<path d="M21.9512 43.5491C16.2821 43.5491 11.6665 38.9404 11.6665 33.2808V6.77001C11.6665 4.10615 9.49063 1.93964 6.81033 1.93964C4.13787 1.93964 1.95417 4.09836 1.95417 6.77001V31.1544H0.5V6.77001C0.5 3.31494 3.32742 0.5 6.81033 0.5C10.2932 0.5 13.1207 3.31494 13.1207 6.77001V33.2808C13.1207 38.145 17.0805 42.1027 21.9444 42.1027C25.7627 42.1027 29.1522 39.6596 30.3586 36.0925L31.7683 36.475C30.3927 40.6664 26.4268 43.5491 21.9512 43.5491Z" fill="white" stroke="white"/>
</svg>
