<svg width="183" height="51" viewBox="0 0 183 51" fill="none" xmlns="http://www.w3.org/2000/svg">
<path d="M17.4707 50.9999C7.83717 50.9999 0 43.2092 0 33.6327C0 24.0635 7.83717 16.2727 17.4707 16.2727C27.1041 16.2727 34.9413 24.0635 34.9413 33.6399C34.9413 43.2092 27.1041 50.9999 17.4707 50.9999ZM17.4707 18.8648C9.27857 18.8648 2.6148 25.4891 2.6148 33.6327C2.6148 41.7763 9.27857 48.4006 17.4707 48.4006C25.6627 48.4006 32.3265 41.7763 32.3265 33.6327C32.3265 25.4963 25.6627 18.8648 17.4707 18.8648Z" fill="white"/>
<path d="M33.1672 40.905C29.1327 40.905 25.8516 37.6433 25.8516 33.6327C25.8516 29.6221 29.1327 26.3604 33.1672 26.3604C37.2017 26.3604 40.4829 29.6221 40.4829 33.6327C40.4756 37.6433 37.1944 40.905 33.1672 40.905ZM33.1672 28.4268C30.2772 28.4268 27.9231 30.767 27.9231 33.6399C27.9231 36.5128 30.2699 38.8529 33.1672 38.8529C36.0573 38.8529 38.4041 36.52 38.4041 33.6399C38.4041 30.7598 36.05 28.4268 33.1672 28.4268Z" fill="white"/>
<path d="M23.3232 46.8022C17.0071 46.8022 11.8644 41.6684 11.8644 35.3609V7.19314C11.8644 4.65862 9.79284 2.59212 7.23598 2.59212C4.68636 2.59212 2.60756 4.65142 2.60756 7.19314V33.6328H0V7.19314C0 3.22575 3.24496 0 7.23598 0C11.227 0 14.472 3.22575 14.472 7.19314V35.3609C14.472 40.2355 18.4412 44.2029 23.3159 44.2029C27.3142 44.2029 30.8416 41.5316 31.8992 37.701L34.4198 38.385C33.0581 43.346 28.4948 46.8022 23.3232 46.8022Z" fill="white"/>
<path d="M69.8391 37.9891C69.8391 41.1069 67.2243 43.1518 63.342 43.1518H56.4537C55.8163 43.1518 55.4541 42.7917 55.4541 42.1581V24.8125C55.4541 24.1789 55.8163 23.8188 56.4537 23.8188H62.4583C66.1813 23.8188 68.9265 25.6981 68.9265 28.8159C68.9265 30.8032 67.7893 32.5961 65.2614 33.2369C68.3108 33.5681 69.8391 35.613 69.8391 37.9891ZM58.3876 26.2238V32.3296H61.3356C64.6458 32.3296 65.8916 30.7024 65.8916 29.0391C65.8916 27.1886 64.2836 26.2238 62.4221 26.2238H58.3876ZM66.8332 37.8739C66.8332 36.1602 65.3918 34.5329 61.944 34.5329H58.3876V40.7468H63.3058C65.3628 40.7468 66.8332 39.6164 66.8332 37.8739Z" fill="white"/>
<path d="M82.5873 35.8866H78.7556V42.1581C78.7556 42.7917 78.3934 43.1518 77.756 43.1518H76.8072C76.1698 43.1518 75.8076 42.7917 75.8076 42.1581V24.8125C75.8076 24.1789 76.1698 23.8188 76.8072 23.8188H83.9997C87.7517 23.8188 89.9174 26.6342 89.9174 29.9247C89.9174 32.7977 88.2515 35.1954 85.3614 35.7498C85.557 37.8451 86.8608 40.9989 88.9686 40.9989C89.5263 40.9989 89.9971 40.8909 90.3882 40.6676C90.9967 40.394 91.4168 40.4444 91.721 41.0277L91.8586 41.2797C92.1121 41.8341 92.0831 42.3309 91.5544 42.6621C90.7214 43.2166 89.7508 43.4614 88.7513 43.4614C84.1663 43.4542 82.7828 38.2051 82.5873 35.8866ZM83.4202 33.5681C85.557 33.5681 86.8608 32.0488 86.8608 29.9247C86.8608 27.743 85.528 26.2238 83.4202 26.2238H78.7556V33.5681H83.4202Z" fill="white"/>
<path d="M95.1392 41.9924L101.832 24.6252C102.027 24.0995 102.44 23.8259 102.998 23.8259H104.606C105.193 23.8259 105.577 24.0995 105.772 24.6252L112.523 41.9924C112.776 42.6836 112.494 43.1516 111.748 43.1516H110.857C110.27 43.1516 109.886 42.8996 109.662 42.3524L108.467 39.2059H99.1881L97.993 42.3524C97.7684 42.9068 97.4063 43.1516 96.8268 43.1516H95.9069C95.1681 43.1516 94.8639 42.6836 95.1392 41.9924ZM107.641 36.8225L103.809 26.6629L100.036 36.8225H107.641Z" fill="white"/>
<path d="M117.333 35.973V24.8125C117.333 24.1789 117.724 23.8188 118.333 23.8188H119.274C119.912 23.8188 120.274 24.1789 120.274 24.8125V35.9658C120.274 39.2204 122.497 40.826 125.054 40.826C127.64 40.826 129.864 39.2204 129.864 35.9658V24.8125C129.864 24.1789 130.226 23.8188 130.863 23.8188H131.783C132.421 23.8188 132.812 24.1789 132.812 24.8125V35.9658C132.812 40.8836 129.255 43.447 125.062 43.447C120.889 43.4542 117.333 40.8836 117.333 35.973Z" fill="white"/>
<path d="M138.085 42.1581V41.6613C138.085 41.1933 138.223 40.8044 138.527 40.4444L149.776 26.2238H139.831C139.193 26.2238 138.831 25.8637 138.831 25.2301V24.8125C138.831 24.1789 139.193 23.8188 139.831 23.8188H152.666C153.303 23.8188 153.694 24.1789 153.694 24.8125V25.3093C153.694 25.7773 153.556 26.1662 153.252 26.5262L141.888 40.7468H153.303C153.94 40.7468 154.332 41.1069 154.332 41.7405V42.1509C154.332 42.7845 153.94 43.1446 153.303 43.1446H139.106C138.469 43.1518 138.085 42.7917 138.085 42.1581Z" fill="white"/>
<path d="M158.083 42.1581V41.6613C158.083 41.1933 158.221 40.8044 158.525 40.4444L169.774 26.2238H159.829C159.191 26.2238 158.829 25.8637 158.829 25.2301V24.8125C158.829 24.1789 159.191 23.8188 159.829 23.8188H172.664C173.301 23.8188 173.692 24.1789 173.692 24.8125V25.3093C173.692 25.7773 173.555 26.1662 173.25 26.5262L161.886 40.7468H173.301C173.938 40.7468 174.33 41.1069 174.33 41.7405V42.1509C174.33 42.7845 173.938 43.1446 173.301 43.1446H159.104C158.474 43.1518 158.083 42.7917 158.083 42.1581Z" fill="white"/>
<path d="M178.807 41.4093C178.807 40.25 179.719 39.314 180.893 39.314C182.059 39.314 183.008 40.25 183.008 41.4093C183.008 42.5397 182.059 43.4542 180.893 43.4542C179.719 43.4542 178.807 42.5397 178.807 41.4093Z" fill="white"/>
</svg>
